<?xml version="1.0" encoding="utf-8"?>
<svg id="svg2" viewBox="0 0 450 450" xmlns="http://www.w3.org/2000/svg" xmlns:bx="https://boxy-svg.com">
  <defs id="defs4">
    <radialGradient id="radialGradient4027" gradientUnits="userSpaceOnUse" cy="513.48" cx="613.18" gradientTransform="matrix(0.46082, 0, 0, 0.458367, -207.352468, -160.370098)" r="225">
      <stop id="stop4001" offset="0" style="stop-color: rgb(255, 255, 255); stop-opacity: 0;"/>
      <stop id="stop4037" offset="0.1449" style="stop-color: rgb(223, 223, 223); stop-opacity: 0.062745;"/>
      <stop id="stop4035" offset="0.3212" style="stop-color: rgb(191, 191, 191); stop-opacity: 0.12549;"/>
      <stop id="stop4033" offset="0.4809" style="stop-color: rgb(127, 127, 127); stop-opacity: 0.25098;"/>
      <stop id="stop4003" offset="1" style="stop-opacity: 0.5;"/>
    </radialGradient>
    <radialGradient id="gradient-2" gradientUnits="userSpaceOnUse" cy="513.48" cx="613.18" gradientTransform="matrix(0.46082, 0, 0, 0.458367, -57.352521, -160.370114)" r="225">
      <stop id="stop-6" offset="0" style="stop-color: rgb(255, 255, 255); stop-opacity: 0;"/>
      <stop id="stop-7" offset="0.1449" style="stop-color: rgb(223, 223, 223); stop-opacity: 0.062745;"/>
      <stop id="stop-8" offset="0.3212" style="stop-color: rgb(191, 191, 191); stop-opacity: 0.12549;"/>
      <stop id="stop-9" offset="0.4809" style="stop-color: rgb(127, 127, 127); stop-opacity: 0.25098;"/>
      <stop id="stop-10" offset="1" style="stop-opacity: 0.5;"/>
    </radialGradient>
    <radialGradient id="gradient-3" gradientUnits="userSpaceOnUse" cy="513.48" cx="613.18" gradientTransform="matrix(0.46082, 0, 0, 0.458367, 92.647361, -160.370105)" r="225">
      <stop id="stop-11" offset="0" style="stop-color: rgb(255, 255, 255); stop-opacity: 0;"/>
      <stop id="stop-12" offset="0.1449" style="stop-color: rgb(223, 223, 223); stop-opacity: 0.062745;"/>
      <stop id="stop-13" offset="0.3212" style="stop-color: rgb(191, 191, 191); stop-opacity: 0.12549;"/>
      <stop id="stop-14" offset="0.4809" style="stop-color: rgb(127, 127, 127); stop-opacity: 0.25098;"/>
      <stop id="stop-15" offset="1" style="stop-opacity: 0.5;"/>
    </radialGradient>
    <radialGradient id="gradient-4" gradientUnits="userSpaceOnUse" cy="513.48" cx="613.18" gradientTransform="matrix(0.46082, 0, 0, 0.458367, 92.210485, -10.370108)" r="225">
      <stop id="stop-16" offset="0" style="stop-color: rgb(255, 255, 255); stop-opacity: 0;"/>
      <stop id="stop-17" offset="0.1449" style="stop-color: rgb(223, 223, 223); stop-opacity: 0.062745;"/>
      <stop id="stop-18" offset="0.3212" style="stop-color: rgb(191, 191, 191); stop-opacity: 0.12549;"/>
      <stop id="stop-19" offset="0.4809" style="stop-color: rgb(127, 127, 127); stop-opacity: 0.25098;"/>
      <stop id="stop-20" offset="1" style="stop-opacity: 0.5;"/>
    </radialGradient>
    <radialGradient id="gradient-5" gradientUnits="userSpaceOnUse" cy="513.48" cx="613.18" gradientTransform="matrix(0.462166, 0, 0, 0.458367, -58.396546, -10.370108)" r="225">
      <stop id="stop-21" offset="0" style="stop-color: rgb(255, 255, 255); stop-opacity: 0;"/>
      <stop id="stop-22" offset="0.1449" style="stop-color: rgb(223, 223, 223); stop-opacity: 0.062745;"/>
      <stop id="stop-23" offset="0.3212" style="stop-color: rgb(191, 191, 191); stop-opacity: 0.12549;"/>
      <stop id="stop-24" offset="0.4809" style="stop-color: rgb(127, 127, 127); stop-opacity: 0.25098;"/>
      <stop id="stop-25" offset="1" style="stop-opacity: 0.5;"/>
    </radialGradient>
    <radialGradient id="gradient-6" gradientUnits="userSpaceOnUse" cy="513.48" cx="613.18" gradientTransform="matrix(0.462166, 0, 0, 0.458367, -207.959565, -10.370108)" r="225">
      <stop id="stop-26" offset="0" style="stop-color: rgb(255, 255, 255); stop-opacity: 0;"/>
      <stop id="stop-27" offset="0.1449" style="stop-color: rgb(223, 223, 223); stop-opacity: 0.062745;"/>
      <stop id="stop-28" offset="0.3212" style="stop-color: rgb(191, 191, 191); stop-opacity: 0.12549;"/>
      <stop id="stop-29" offset="0.4809" style="stop-color: rgb(127, 127, 127); stop-opacity: 0.25098;"/>
      <stop id="stop-30" offset="1" style="stop-opacity: 0.5;"/>
    </radialGradient>
    <radialGradient id="gradient-7" gradientUnits="userSpaceOnUse" cy="513.48" cx="613.18" gradientTransform="matrix(0.462166, 0, 0, 0.458367, -208.396546, 139.629894)" r="225">
      <stop id="stop-31" offset="0" style="stop-color: rgb(255, 255, 255); stop-opacity: 0;"/>
      <stop id="stop-32" offset="0.1449" style="stop-color: rgb(223, 223, 223); stop-opacity: 0.062745;"/>
      <stop id="stop-33" offset="0.3212" style="stop-color: rgb(191, 191, 191); stop-opacity: 0.12549;"/>
      <stop id="stop-34" offset="0.4809" style="stop-color: rgb(127, 127, 127); stop-opacity: 0.25098;"/>
      <stop id="stop-35" offset="1" style="stop-opacity: 0.5;"/>
    </radialGradient>
    <radialGradient id="gradient-8" gradientUnits="userSpaceOnUse" cy="513.48" cx="613.18" gradientTransform="matrix(0.463512, 0, 0, 0.458366, -59.00355, 139.630417)" r="225">
      <stop id="stop-36" offset="0" style="stop-color: rgb(255, 255, 255); stop-opacity: 0;"/>
      <stop id="stop-37" offset="0.1449" style="stop-color: rgb(223, 223, 223); stop-opacity: 0.062745;"/>
      <stop id="stop-38" offset="0.3212" style="stop-color: rgb(191, 191, 191); stop-opacity: 0.12549;"/>
      <stop id="stop-39" offset="0.4809" style="stop-color: rgb(127, 127, 127); stop-opacity: 0.25098;"/>
      <stop id="stop-40" offset="1" style="stop-opacity: 0.5;"/>
    </radialGradient>
    <radialGradient id="gradient-9" gradientUnits="userSpaceOnUse" cy="513.48" cx="613.18" gradientTransform="matrix(0.460819, 0, 0, 0.458366, 92.211067, 139.630168)" r="225">
      <stop id="stop-41" offset="0" style="stop-color: rgb(255, 255, 255); stop-opacity: 0;"/>
      <stop id="stop-42" offset="0.1449" style="stop-color: rgb(223, 223, 223); stop-opacity: 0.062745;"/>
      <stop id="stop-43" offset="0.3212" style="stop-color: rgb(191, 191, 191); stop-opacity: 0.12549;"/>
      <stop id="stop-44" offset="0.4809" style="stop-color: rgb(127, 127, 127); stop-opacity: 0.25098;"/>
      <stop id="stop-45" offset="1" style="stop-opacity: 0.5;"/>
    </radialGradient>
  </defs>
  <rect x="300" y="300" width="150" height="150" id="rect21" style="fill-rule: evenodd; fill: rgb(37, 37, 37);"/>
  <rect x="150" y="300" width="150" height="150" id="rect3981" style="fill-rule: evenodd; fill: rgb(131, 136, 116);"/>
  <rect y="300" width="150" height="150" id="rect3983" style="fill-rule: evenodd; fill: rgb(109, 149, 213);"/>
  <rect x="300" y="150" width="150" height="150" id="rect3985" style="fill-rule: evenodd; fill: rgb(217, 72, 63);"/>
  <rect x="150" y="150" width="150" height="150" id="rect3987" style="fill-rule: evenodd; fill: rgb(174, 183, 154);"/>
  <rect y="150" width="150" height="150" id="rect3989" style="fill-rule: evenodd; fill: rgb(131, 136, 116);"/>
  <rect x="300" y="-150" width="150" height="150" id="rect3991" transform="matrix(1, 0, 0, -1, 0, 0)" style="fill-rule: evenodd; fill: rgb(131, 136, 116);"/>
  <rect x="150" width="150" height="150" id="rect3993" style="fill-rule: evenodd; fill: rgb(37, 37, 37);"/>
  <rect width="150" height="150" id="rect3995" style="fill-rule: evenodd; fill: rgb(217, 72, 63);"/>
  <path style="stroke: none; fill: rgb(174, 183, 154);" d="M 44.409 21.31 C 44.409 21.31 112.393 75.086 112.393 75.086 C 112.393 75.086 83.349 80.073 83.349 80.073 C 83.349 80.073 101.82 118.069 101.82 118.069 C 101.82 118.069 84.883 126.422 84.883 126.422 C 84.883 126.422 66.306 88.063 66.306 88.063 C 66.306 88.063 44.41 108.125 44.41 108.125 C 44.41 108.125 44.409 21.31 44.409 21.31 Z" transform="matrix(0.942597, -0.333933, 0.333933, 0.942597, -20.165825, 30.420826)"/>
  <path id="path-10" d="M 270.948 111.732 C 270.948 111.732 273.195 111.732 273.195 111.732 C 273.195 111.732 273.195 119.25 273.195 119.25 C 273.195 119.25 239.278 119.25 239.278 119.25 C 239.278 119.25 239.278 111.732 239.278 111.732 C 239.278 111.732 242.217 111.732 242.217 111.732 C 244.613 111.732 246.298 109.517 245.521 107.396 C 245.521 107.396 241.266 95.74 241.266 95.74 C 241.266 95.74 208.737 95.74 208.737 95.74 C 208.737 95.74 204.48 107.396 204.48 107.396 C 203.702 109.517 205.388 111.732 207.783 111.732 C 207.783 111.732 210.723 111.732 210.723 111.732 C 210.723 111.732 210.723 119.25 210.723 119.25 C 210.723 119.25 176.806 119.25 176.806 119.25 C 176.806 119.25 176.806 111.732 176.806 111.732 C 176.806 111.732 179.054 111.732 179.054 111.732 C 182.152 111.732 184.911 109.9 185.939 107.163 C 185.939 107.163 218.061 30.749 218.061 30.749 C 218.061 30.749 233.064 30.749 233.064 30.749 C 233.064 30.749 264.06 107.163 264.06 107.163 C 265.09 109.9 267.85 111.732 270.948 111.732 Z M 213.939 84.468 C 213.939 84.468 236.061 84.468 236.061 84.468 C 236.061 84.468 225.001 49.583 225.001 49.583 C 225.001 49.583 213.939 84.468 213.939 84.468 Z" style="fill: rgb(174, 183, 154);"/>
  <g transform="matrix(1, 0, 0, 1, 47.262531, 110.279236)">
    <path d="M 276.422 4.094 C 275.397 -0.659 304.204 -23.661 325.326 -23.721 C 345.495 -23.778 377.367 -1.574 376.611 4.094 L 376.611 4.094 C 376.611 7.822 372.984 10.845 368.51 10.845 C 368.19 9.44 341.519 -12.763 324.895 -11.029 C 307.919 -9.258 283.427 10.297 284.523 10.845 C 280.049 10.845 276.422 7.822 276.422 4.094 L 276.422 4.094 Z" style="stroke-width: 0.871; fill: rgb(174, 183, 154);"/>
    <rect x="14.854" y="51.466" width="70.753" height="6.501" transform="matrix(0.530983, -0.847382, 0.847385, 0.530982, 226.691539, -14.985962)" style="stroke-width: 1.146; opacity: 0.35; fill: rgb(174, 183, 154);"/>
    <rect x="-14.854" y="-51.466" width="70.753" height="6.501" transform="matrix(-0.530983, -0.847383, -0.84738, 0.530983, 322.968978, 14.494939)" style="stroke-width: 1.146; opacity: 0.35; fill: rgb(174, 183, 154);"/>
    <path d="M 312.921 -58.048 C 305.928 -65.041 305.928 -76.378 312.921 -83.371 C 319.914 -90.364 331.251 -90.364 338.244 -83.371 C 345.237 -76.378 345.237 -65.041 338.244 -58.048 C 331.251 -51.055 319.914 -51.055 312.921 -58.048 Z M 331.975 -64.317 C 335.506 -67.848 335.506 -73.572 331.975 -77.103 C 328.445 -80.634 322.72 -80.634 319.19 -77.103 C 315.659 -73.572 315.659 -67.848 319.19 -64.317 C 322.72 -60.786 328.445 -60.786 331.975 -64.317 Z" style="stroke-width: 1.98; fill: rgb(174, 183, 154);"/>
  </g>
  <g transform="matrix(0.913795, 0, 0, 0.913795, 194.918243, -4.591006)">
    <path d="M -176.269 300.888 L -87.351 300.888 L -132.347 210.826 C -132.347 210.826 -176.628 299.455 -176.269 300.888 Z" style="stroke: inherit; stroke-width: 10; stroke-linejoin: round; stroke-linecap: butt; opacity: 0.2; fill: rgb(174, 183, 154);"/>
    <path d="M -131.526 201.37 L -81.231 301.13 L -181.231 301.13 M -131.55 212.185 L -172.703 296.277 L -89.188 296.683" style="fill: rgb(174, 183, 154);"/>
  </g>
  <g transform="matrix(1, 0, 0, 1, -243.760025, -51.932507)">
    <path d="M 618.76 382.617 L 630.055 416.756 L 664.451 417.492 L 637.036 439.328 L 646.999 473.92 L 618.76 453.277 L 590.521 473.92 L 600.484 439.328 L 573.069 417.492 L 607.465 416.756 L 618.76 382.617 L 630.055 416.756" style="stroke: inherit; stroke-width: 7.685; opacity: 0.3; fill: rgb(174, 183, 154);" bx:is="bx-starpath" bx:cx="365" bx:cy="248" bx:r1="102.54520954193814" bx:r2="256.3630238548453"/>
    <path d="M 674.403 413.808 L 641.016 440.398 L 653.149 482.527 L 618.76 457.387 L 584.371 482.527 L 596.504 440.398 L 563.117 413.808 L 605.004 412.912 L 618.76 371.338 L 632.516 412.912 Z M 629.103 417.645 L 618.76 386.383 L 608.417 417.645 L 576.921 418.319 L 602.025 438.314 L 592.901 469.989 L 618.76 451.087 L 644.619 469.989 L 635.495 438.314 L 660.599 418.319 Z" style="stroke: inherit; stroke-width: 9.361; fill: rgb(174, 183, 154);" bx:is="bx-starpath" bx:cx="365" bx:cy="248" bx:r1="102.54520954193814" bx:r2="256.3630238548453"/>
  </g>
  <path d="M 242.822 209.423 C 247.578 204.652 255.308 201.294 258.829 195.897 C 262.681 189.966 261.01 182.045 255.079 178.165 C 249.156 174.319 241.227 175.997 237.327 181.922 C 233.687 187.518 233.891 196.364 231.142 202.692 C 227.616 210.871 215.711 211.913 202.007 204.811 C 194.528 219.391 184.35 235.038 174.01 247.753 C 174.01 247.753 224.179 280.366 224.179 280.366 C 230.679 267.829 243.327 248.444 252.164 237.431 C 239.881 227.598 236.199 216.033 242.822 209.423 Z M 250.433 185.333 C 252.398 186.61 252.962 189.268 251.66 191.228 C 250.382 193.231 247.726 193.765 245.766 192.488 C 243.777 191.19 243.225 188.566 244.519 186.597 C 245.792 184.605 248.443 184.037 250.433 185.333 Z M 221.481 268.86 C 221.481 268.86 185.639 245.568 185.639 245.568 C 189.878 240.069 193.255 234.792 197.858 227.74 C 199.712 224.892 201.91 224.293 203.221 225.144 C 208.015 228.258 196.674 240.892 201.791 244.219 C 206.869 247.515 214.34 229.588 219.869 233.188 C 224.15 235.967 216.436 244.906 220.777 247.723 C 222.796 249.043 225.698 246.603 228.231 244.983 C 232.601 242.183 236.657 245.008 232.385 251.567 C 228.121 258.088 225.796 261.622 221.481 268.86 Z" style="fill: rgb(217, 72, 63);" transform="matrix(0.978626, 0.205646, -0.205646, 0.978626, 51.582938, -39.840711)"/>
  <g transform="matrix(0.929462, 0, 0, 0.929462, -471.510193, 14.421228)">
    <path d="M 552.926 374.538 C 552.926 374.538 555.882 372.822 555.882 372.822 C 555.882 372.822 562.027 369.834 562.027 369.834 C 562.027 369.834 565.203 368.573 565.203 368.573 C 565.203 368.573 571.727 366.541 571.727 366.541 C 571.727 366.541 578.423 365.184 578.423 365.184 C 578.423 365.184 581.815 364.761 581.815 364.761 C 581.815 364.761 585.223 364.508 585.223 364.508 C 585.223 364.508 592.056 364.514 592.056 364.514 C 592.056 364.514 595.463 364.778 595.463 364.778 C 595.463 364.778 598.852 365.217 598.852 365.217 C 598.852 365.217 605.541 366.614 605.541 366.614 C 605.541 366.614 612.054 368.679 612.054 368.679 C 612.054 368.679 615.226 369.952 615.226 369.952 C 615.226 369.952 621.365 372.953 621.365 372.953 C 621.365 372.953 627.192 376.521 627.192 376.521 C 627.192 376.521 632.668 380.609 632.668 380.609 C 632.668 380.609 635.264 382.832 635.264 382.832 C 635.264 382.832 635.451 383.353 635.451 383.353 C 635.451 383.353 635.451 434.592 635.451 434.592 C 635.451 434.592 541.18 434.592 541.18 434.592 C 541.18 434.592 541.18 383.353 541.18 383.353 C 541.18 383.353 547.276 378.38 547.276 378.38" style="opacity: 0.3; fill: rgb(16, 58, 125);"/>
    <path d="M 541.554 424.273 C 541.554 424.273 544.153 418.108 544.153 418.108 C 544.153 418.108 545.17 416.122 545.17 416.122 C 545.17 416.122 548.661 410.415 548.661 410.415 C 548.661 410.415 551.351 406.855 551.351 406.855 C 551.351 406.855 554.32 403.526 554.32 403.526 C 554.32 403.526 557.559 400.458 557.559 400.458 C 557.559 400.458 561.054 397.685 561.054 397.685 C 561.054 397.685 566.733 394.152 566.733 394.152 C 566.733 394.152 568.731 393.158 568.731 393.158 C 568.731 393.158 574.978 390.771 574.978 390.771 C 574.978 390.771 579.309 389.701 579.309 389.701 C 579.309 389.701 581.509 389.327 581.509 389.327 C 581.509 389.327 585.949 388.902 585.949 388.902 C 585.949 388.902 592.635 389.072 592.635 389.072 C 592.635 389.072 597.047 389.735 597.047 389.735 C 597.047 389.735 603.489 391.532 603.489 391.532 C 603.489 391.532 607.61 393.239 607.61 393.239 C 607.61 393.239 609.606 394.237 609.606 394.237 C 609.606 394.237 615.288 397.765 615.288 397.765 C 615.288 397.765 618.791 400.529 618.791 400.529 C 618.791 400.529 622.04 403.585 622.04 403.585 C 622.04 403.585 625.02 406.905 625.02 406.905 C 625.02 406.905 627.717 410.459 627.717 410.459 C 627.717 410.459 631.212 416.164 631.212 416.164 C 631.212 416.164 633.171 420.173 633.171 420.173 C 633.171 420.173 635.55 426.426 635.55 426.426 C 635.55 426.426 637.229 432.902 637.229 432.902 C 637.229 432.902 637.949 434.848 637.949 434.848 C 637.949 434.848 539.184 434.848 539.184 434.848 C 539.184 434.848 539.644 430.685 539.644 430.685" style="opacity: 0.6; fill: rgb(16, 58, 125);"/>
    <path d="M 593.743 410.003 C 593.743 410.003 594.889 410.213 594.889 410.213 C 594.889 410.213 600.446 411.941 600.446 411.941 C 600.446 411.941 604.568 414.111 604.568 414.111 C 604.568 414.111 607.396 416.165 607.396 416.165 C 607.396 416.165 609.947 418.555 609.947 418.555 C 609.947 418.555 612.175 421.247 612.175 421.247 C 612.175 421.247 615.08 426.289 615.08 426.289 C 615.08 426.289 616.597 430.692 616.597 430.692 C 616.597 430.692 617.214 434.132 617.214 434.132 C 617.214 434.132 616.838 434.509 616.838 434.509 C 616.838 434.509 560.984 434.509 560.984 434.509 C 560.984 434.509 561.36 431.813 561.36 431.813 C 561.36 431.813 563.133 426.271 563.133 426.271 C 563.133 426.271 565.37 422.186 565.37 422.186 C 565.37 422.186 567.48 419.399 567.48 419.399 C 567.48 419.399 569.92 416.897 569.92 416.897 C 569.92 416.897 572.653 414.718 572.653 414.718 C 572.653 414.718 577.743 411.899 577.743 411.899 C 577.743 411.899 582.167 410.441 582.167 410.441 C 582.167 410.441 585.609 409.83 585.609 409.83" style="fill: rgb(16, 58, 125);"/>
    <path d="M 538.022 338.293 C 538.022 338.293 637.328 338.293 637.328 338.293 C 637.328 338.293 637.328 437.594 637.328 437.594 C 637.328 437.594 538.022 437.594 538.022 437.594 M 544.14 344.412 C 544.14 344.412 544.14 431.476 544.14 431.476 C 544.14 431.476 631.209 431.476 631.209 431.476 C 631.209 431.476 631.209 344.412 631.209 344.412" style="fill: rgb(16, 58, 125);"/>
  </g>
  <g transform="matrix(0.957094, 0, 0, 0.957094, -328.000366, 102.576584)">
    <path d="M 577.791 334.636 C 577.592 334.636 577.394 334.635 577.196 334.633 L 577.196 234.639 C 577.394 234.637 577.592 234.636 577.791 234.636 C 605.405 234.636 627.791 257.022 627.791 284.636 C 627.791 312.251 605.405 334.636 577.791 334.636 Z" style="stroke-width: 1.679; opacity: 0.9; fill: rgb(174, 183, 154);"/>
    <path d="M 577.791 334.636 C 577.99 334.636 578.188 334.635 578.386 334.633 L 578.386 334.633 C 578.188 334.635 577.99 334.636 577.791 334.636 Z M 577.196 323.241 C 556.208 322.852 539.315 305.716 539.315 284.636 C 539.315 263.556 556.208 246.42 577.196 246.031 L 577.196 234.639 C 549.856 234.958 527.791 257.221 527.791 284.636 C 527.791 312.052 549.856 334.314 577.196 334.633 Z M 578.386 234.639 L 578.386 234.639 C 578.188 234.637 577.99 234.636 577.791 234.636 C 577.99 234.636 578.188 234.637 578.386 234.639 Z" style="stroke-width: 1.679; opacity: 0.9; fill: rgb(174, 183, 154);"/>
  </g>
  <g transform="matrix(1, 0, 0, 1, -229.604019, -103.738014)">
    <path d="M 604.605 278.738 C 632.219 278.738 654.604 300.988 654.604 328.435 L 654.604 329.041 C 654.604 356.488 632.219 378.738 604.605 378.738 C 576.99 378.738 554.604 356.488 554.604 329.041 L 554.604 328.435 C 554.604 300.988 576.99 278.738 604.605 278.738 Z M 560.118 328.468 L 560.118 329.008 C 560.118 353.427 580.036 373.224 604.605 373.224 C 629.173 373.224 649.09 353.427 649.09 329.008 L 649.09 328.468 C 649.09 304.049 629.173 284.252 604.605 284.252 C 580.036 284.252 560.118 304.049 560.118 328.468 Z" style="stroke-width: 1.067; fill: rgb(174, 183, 154);"/>
    <path d="M 604.604 304.303 C 618.099 304.303 629.039 315.243 629.039 328.738 C 629.039 342.233 618.099 353.173 604.604 353.173 C 591.109 353.173 580.169 342.233 580.169 328.738 C 580.169 315.243 591.109 304.303 604.604 304.303 Z M 585.929 328.737 C 585.929 339.05 594.29 347.411 604.603 347.411 C 614.916 347.411 623.277 339.05 623.277 328.737 C 623.277 318.424 614.916 310.063 604.603 310.063 C 594.29 310.063 585.929 318.424 585.929 328.737 Z" style="stroke-width: 0.522; fill: rgb(174, 183, 154);"/>
    <path d="M 603.556 281.797 L 605.652 281.797 C 630.998 281.797 651.545 302.344 651.545 327.69 L 651.545 329.787 C 651.545 355.133 630.998 375.68 605.652 375.68 L 603.556 375.68 C 578.21 375.68 557.663 355.133 557.663 329.787 L 557.663 327.69 C 557.663 302.344 578.21 281.797 603.556 281.797 Z M 581.274 328.739 C 581.274 341.624 591.719 352.069 604.604 352.069 C 617.488 352.068 627.933 341.623 627.933 328.739 C 627.933 315.855 617.488 305.41 604.604 305.409 C 591.719 305.409 581.274 315.854 581.274 328.739 Z" style="opacity: 0.2; stroke-width: 1.002; fill: rgb(174, 183, 154);"/>
  </g>
  <rect x="300" y="300" width="150" height="150" id="rect-11" style="fill-rule: evenodd; fill: rgb(37, 37, 37);"/>
  <rect x="150" y="300" width="150" height="150" id="rect-12" style="fill-rule: evenodd; fill: rgb(131, 136, 116);"/>
  <rect y="300" width="150" height="150" id="rect-13" style="fill-rule: evenodd; fill: rgb(109, 149, 213);"/>
  <rect x="300" y="150" width="150" height="150" id="rect-14" style="fill-rule: evenodd; fill: rgb(217, 72, 63);"/>
  <rect x="150" y="150" width="150" height="150" id="rect-15" style="fill-rule: evenodd; fill: rgb(174, 183, 154);"/>
  <rect y="150" width="150" height="150" id="rect-16" style="fill-rule: evenodd; fill: rgb(131, 136, 116);"/>
  <rect x="300" y="-150" width="150" height="150" id="rect-17" transform="matrix(1, 0, 0, -1, 0, 0)" style="fill-rule: evenodd; fill: rgb(131, 136, 116);"/>
  <rect x="150" width="150" height="150" id="rect-18" style="fill-rule: evenodd; fill: rgb(37, 37, 37);"/>
  <rect width="150" height="150" id="rect-19" style="fill-rule: evenodd; fill: rgb(217, 72, 63);"/>
  <path style="stroke: none; fill: rgb(174, 183, 154);" d="M 44.409 21.31 C 44.409 21.31 112.393 75.086 112.393 75.086 C 112.393 75.086 83.349 80.073 83.349 80.073 C 83.349 80.073 101.82 118.069 101.82 118.069 C 101.82 118.069 84.883 126.422 84.883 126.422 C 84.883 126.422 66.306 88.063 66.306 88.063 C 66.306 88.063 44.41 108.125 44.41 108.125 C 44.41 108.125 44.409 21.31 44.409 21.31 Z" transform="matrix(0.9425970911979675, -0.3339330554008484, 0.3339330554008484, 0.9425970911979675, -20.16582489013672, 30.420825958251896)"/>
  <path id="path-11" d="M 270.948 111.732 C 270.948 111.732 273.195 111.732 273.195 111.732 C 273.195 111.732 273.195 119.25 273.195 119.25 C 273.195 119.25 239.278 119.25 239.278 119.25 C 239.278 119.25 239.278 111.732 239.278 111.732 C 239.278 111.732 242.217 111.732 242.217 111.732 C 244.613 111.732 246.298 109.517 245.521 107.396 C 245.521 107.396 241.266 95.74 241.266 95.74 C 241.266 95.74 208.737 95.74 208.737 95.74 C 208.737 95.74 204.48 107.396 204.48 107.396 C 203.702 109.517 205.388 111.732 207.783 111.732 C 207.783 111.732 210.723 111.732 210.723 111.732 C 210.723 111.732 210.723 119.25 210.723 119.25 C 210.723 119.25 176.806 119.25 176.806 119.25 C 176.806 119.25 176.806 111.732 176.806 111.732 C 176.806 111.732 179.054 111.732 179.054 111.732 C 182.152 111.732 184.911 109.9 185.939 107.163 C 185.939 107.163 218.061 30.749 218.061 30.749 C 218.061 30.749 233.064 30.749 233.064 30.749 C 233.064 30.749 264.06 107.163 264.06 107.163 C 265.09 109.9 267.85 111.732 270.948 111.732 Z M 213.939 84.468 C 213.939 84.468 236.061 84.468 236.061 84.468 C 236.061 84.468 225.001 49.583 225.001 49.583 C 225.001 49.583 213.939 84.468 213.939 84.468 Z" style="fill: rgb(174, 183, 154);"/>
  <g transform="matrix(1, 0, 0, 1, 47.26253128051758, 110.2792358398437)">
    <path d="M 276.422 4.094 C 275.397 -0.659 304.204 -23.661 325.326 -23.721 C 345.495 -23.778 377.367 -1.574 376.611 4.094 L 376.611 4.094 C 376.611 7.822 372.984 10.845 368.51 10.845 C 368.19 9.44 341.519 -12.763 324.895 -11.029 C 307.919 -9.258 283.427 10.297 284.523 10.845 C 280.049 10.845 276.422 7.822 276.422 4.094 L 276.422 4.094 Z" style="stroke-width: 0.871; fill: rgb(174, 183, 154);"/>
    <rect x="14.854" y="51.466" width="70.753" height="6.501" transform="matrix(0.530983, -0.847382, 0.847385, 0.530982, 226.691539, -14.985962)" style="stroke-width: 1.146; opacity: 0.35; fill: rgb(174, 183, 154);"/>
    <rect x="-14.854" y="-51.466" width="70.753" height="6.501" transform="matrix(-0.530983, -0.847383, -0.84738, 0.530983, 322.968978, 14.494939)" style="stroke-width: 1.146; opacity: 0.35; fill: rgb(174, 183, 154);"/>
    <path d="M 312.921 -58.048 C 305.928 -65.041 305.928 -76.378 312.921 -83.371 C 319.914 -90.364 331.251 -90.364 338.244 -83.371 C 345.237 -76.378 345.237 -65.041 338.244 -58.048 C 331.251 -51.055 319.914 -51.055 312.921 -58.048 Z M 331.975 -64.317 C 335.506 -67.848 335.506 -73.572 331.975 -77.103 C 328.445 -80.634 322.72 -80.634 319.19 -77.103 C 315.659 -73.572 315.659 -67.848 319.19 -64.317 C 322.72 -60.786 328.445 -60.786 331.975 -64.317 Z" style="stroke-width: 1.98; fill: rgb(174, 183, 154);"/>
  </g>
  <g transform="matrix(0.9137951135635376, 0, 0, 0.9137951135635376, 194.91824340820312, -4.591006278991756)">
    <path d="M -176.269 300.888 L -87.351 300.888 L -132.347 210.826 C -132.347 210.826 -176.628 299.455 -176.269 300.888 Z" style="stroke: inherit; stroke-width: 10; stroke-linejoin: round; stroke-linecap: butt; opacity: 0.2; fill: rgb(174, 183, 154);"/>
    <path d="M -131.526 201.37 L -81.231 301.13 L -181.231 301.13 M -131.55 212.185 L -172.703 296.277 L -89.188 296.683" style="fill: rgb(174, 183, 154);"/>
  </g>
  <g transform="matrix(1, 0, 0, 1, -243.76002502441406, -51.932506561279354)">
    <path d="M 618.76 382.617 L 630.055 416.756 L 664.451 417.492 L 637.036 439.328 L 646.999 473.92 L 618.76 453.277 L 590.521 473.92 L 600.484 439.328 L 573.069 417.492 L 607.465 416.756 L 618.76 382.617 L 630.055 416.756" style="stroke: inherit; stroke-width: 7.685; opacity: 0.3; fill: rgb(174, 183, 154);" bx:is="bx-starpath" bx:cx="365" bx:cy="248" bx:r1="102.54520954193814" bx:r2="256.3630238548453"/>
    <path d="M 674.403 413.808 L 641.016 440.398 L 653.149 482.527 L 618.76 457.387 L 584.371 482.527 L 596.504 440.398 L 563.117 413.808 L 605.004 412.912 L 618.76 371.338 L 632.516 412.912 Z M 629.103 417.645 L 618.76 386.383 L 608.417 417.645 L 576.921 418.319 L 602.025 438.314 L 592.901 469.989 L 618.76 451.087 L 644.619 469.989 L 635.495 438.314 L 660.599 418.319 Z" style="stroke: inherit; stroke-width: 9.361; fill: rgb(174, 183, 154);" bx:is="bx-starpath" bx:cx="365" bx:cy="248" bx:r1="102.54520954193814" bx:r2="256.3630238548453"/>
  </g>
  <path d="M 242.822 209.423 C 247.578 204.652 255.308 201.294 258.829 195.897 C 262.681 189.966 261.01 182.045 255.079 178.165 C 249.156 174.319 241.227 175.997 237.327 181.922 C 233.687 187.518 233.891 196.364 231.142 202.692 C 227.616 210.871 215.711 211.913 202.007 204.811 C 194.528 219.391 184.35 235.038 174.01 247.753 C 174.01 247.753 224.179 280.366 224.179 280.366 C 230.679 267.829 243.327 248.444 252.164 237.431 C 239.881 227.598 236.199 216.033 242.822 209.423 Z M 250.433 185.333 C 252.398 186.61 252.962 189.268 251.66 191.228 C 250.382 193.231 247.726 193.765 245.766 192.488 C 243.777 191.19 243.225 188.566 244.519 186.597 C 245.792 184.605 248.443 184.037 250.433 185.333 Z M 221.481 268.86 C 221.481 268.86 185.639 245.568 185.639 245.568 C 189.878 240.069 193.255 234.792 197.858 227.74 C 199.712 224.892 201.91 224.293 203.221 225.144 C 208.015 228.258 196.674 240.892 201.791 244.219 C 206.869 247.515 214.34 229.588 219.869 233.188 C 224.15 235.967 216.436 244.906 220.777 247.723 C 222.796 249.043 225.698 246.603 228.231 244.983 C 232.601 242.183 236.657 245.008 232.385 251.567 C 228.121 258.088 225.796 261.622 221.481 268.86 Z" style="fill: rgb(217, 72, 63);" transform="matrix(0.9786261320114136, 0.20564597845077515, -0.20564597845077515, 0.9786261320114136, 51.58293914794922, -39.840709686279354)"/>
  <g transform="matrix(0.9294621348381042, 0, 0, 0.9294621348381042, -471.51019287109375, 14.42122840881342)">
    <path d="M 552.926 374.538 C 552.926 374.538 555.882 372.822 555.882 372.822 C 555.882 372.822 562.027 369.834 562.027 369.834 C 562.027 369.834 565.203 368.573 565.203 368.573 C 565.203 368.573 571.727 366.541 571.727 366.541 C 571.727 366.541 578.423 365.184 578.423 365.184 C 578.423 365.184 581.815 364.761 581.815 364.761 C 581.815 364.761 585.223 364.508 585.223 364.508 C 585.223 364.508 592.056 364.514 592.056 364.514 C 592.056 364.514 595.463 364.778 595.463 364.778 C 595.463 364.778 598.852 365.217 598.852 365.217 C 598.852 365.217 605.541 366.614 605.541 366.614 C 605.541 366.614 612.054 368.679 612.054 368.679 C 612.054 368.679 615.226 369.952 615.226 369.952 C 615.226 369.952 621.365 372.953 621.365 372.953 C 621.365 372.953 627.192 376.521 627.192 376.521 C 627.192 376.521 632.668 380.609 632.668 380.609 C 632.668 380.609 635.264 382.832 635.264 382.832 C 635.264 382.832 635.451 383.353 635.451 383.353 C 635.451 383.353 635.451 434.592 635.451 434.592 C 635.451 434.592 541.18 434.592 541.18 434.592 C 541.18 434.592 541.18 383.353 541.18 383.353 C 541.18 383.353 547.276 378.38 547.276 378.38" style="opacity: 0.3; fill: rgb(16, 58, 125);"/>
    <path d="M 541.554 424.273 C 541.554 424.273 544.153 418.108 544.153 418.108 C 544.153 418.108 545.17 416.122 545.17 416.122 C 545.17 416.122 548.661 410.415 548.661 410.415 C 548.661 410.415 551.351 406.855 551.351 406.855 C 551.351 406.855 554.32 403.526 554.32 403.526 C 554.32 403.526 557.559 400.458 557.559 400.458 C 557.559 400.458 561.054 397.685 561.054 397.685 C 561.054 397.685 566.733 394.152 566.733 394.152 C 566.733 394.152 568.731 393.158 568.731 393.158 C 568.731 393.158 574.978 390.771 574.978 390.771 C 574.978 390.771 579.309 389.701 579.309 389.701 C 579.309 389.701 581.509 389.327 581.509 389.327 C 581.509 389.327 585.949 388.902 585.949 388.902 C 585.949 388.902 592.635 389.072 592.635 389.072 C 592.635 389.072 597.047 389.735 597.047 389.735 C 597.047 389.735 603.489 391.532 603.489 391.532 C 603.489 391.532 607.61 393.239 607.61 393.239 C 607.61 393.239 609.606 394.237 609.606 394.237 C 609.606 394.237 615.288 397.765 615.288 397.765 C 615.288 397.765 618.791 400.529 618.791 400.529 C 618.791 400.529 622.04 403.585 622.04 403.585 C 622.04 403.585 625.02 406.905 625.02 406.905 C 625.02 406.905 627.717 410.459 627.717 410.459 C 627.717 410.459 631.212 416.164 631.212 416.164 C 631.212 416.164 633.171 420.173 633.171 420.173 C 633.171 420.173 635.55 426.426 635.55 426.426 C 635.55 426.426 637.229 432.902 637.229 432.902 C 637.229 432.902 637.949 434.848 637.949 434.848 C 637.949 434.848 539.184 434.848 539.184 434.848 C 539.184 434.848 539.644 430.685 539.644 430.685" style="opacity: 0.6; fill: rgb(16, 58, 125);"/>
    <path d="M 593.743 410.003 C 593.743 410.003 594.889 410.213 594.889 410.213 C 594.889 410.213 600.446 411.941 600.446 411.941 C 600.446 411.941 604.568 414.111 604.568 414.111 C 604.568 414.111 607.396 416.165 607.396 416.165 C 607.396 416.165 609.947 418.555 609.947 418.555 C 609.947 418.555 612.175 421.247 612.175 421.247 C 612.175 421.247 615.08 426.289 615.08 426.289 C 615.08 426.289 616.597 430.692 616.597 430.692 C 616.597 430.692 617.214 434.132 617.214 434.132 C 617.214 434.132 616.838 434.509 616.838 434.509 C 616.838 434.509 560.984 434.509 560.984 434.509 C 560.984 434.509 561.36 431.813 561.36 431.813 C 561.36 431.813 563.133 426.271 563.133 426.271 C 563.133 426.271 565.37 422.186 565.37 422.186 C 565.37 422.186 567.48 419.399 567.48 419.399 C 567.48 419.399 569.92 416.897 569.92 416.897 C 569.92 416.897 572.653 414.718 572.653 414.718 C 572.653 414.718 577.743 411.899 577.743 411.899 C 577.743 411.899 582.167 410.441 582.167 410.441 C 582.167 410.441 585.609 409.83 585.609 409.83" style="fill: rgb(16, 58, 125);"/>
    <path d="M 538.022 338.293 C 538.022 338.293 637.328 338.293 637.328 338.293 C 637.328 338.293 637.328 437.594 637.328 437.594 C 637.328 437.594 538.022 437.594 538.022 437.594 M 544.14 344.412 C 544.14 344.412 544.14 431.476 544.14 431.476 C 544.14 431.476 631.209 431.476 631.209 431.476 C 631.209 431.476 631.209 344.412 631.209 344.412" style="fill: rgb(16, 58, 125);"/>
  </g>
  <g transform="matrix(0.957094132900238, 0, 0, 0.957094132900238, -328.0003662109375, 102.57658386230463)">
    <path d="M 577.791 334.636 C 577.592 334.636 577.394 334.635 577.196 334.633 L 577.196 234.639 C 577.394 234.637 577.592 234.636 577.791 234.636 C 605.405 234.636 627.791 257.022 627.791 284.636 C 627.791 312.251 605.405 334.636 577.791 334.636 Z" style="stroke-width: 1.679; opacity: 0.9; fill: rgb(174, 183, 154);"/>
    <path d="M 577.791 334.636 C 577.99 334.636 578.188 334.635 578.386 334.633 L 578.386 334.633 C 578.188 334.635 577.99 334.636 577.791 334.636 Z M 577.196 323.241 C 556.208 322.852 539.315 305.716 539.315 284.636 C 539.315 263.556 556.208 246.42 577.196 246.031 L 577.196 234.639 C 549.856 234.958 527.791 257.221 527.791 284.636 C 527.791 312.052 549.856 334.314 577.196 334.633 Z M 578.386 234.639 L 578.386 234.639 C 578.188 234.637 577.99 234.636 577.791 234.636 C 577.99 234.636 578.188 234.637 578.386 234.639 Z" style="stroke-width: 1.679; opacity: 0.9; fill: rgb(174, 183, 154);"/>
  </g>
  <g transform="matrix(1, 0, 0, 1, -229.60401916503906, -103.73801422119146)">
    <path d="M 604.605 278.738 C 632.219 278.738 654.604 300.988 654.604 328.435 L 654.604 329.041 C 654.604 356.488 632.219 378.738 604.605 378.738 C 576.99 378.738 554.604 356.488 554.604 329.041 L 554.604 328.435 C 554.604 300.988 576.99 278.738 604.605 278.738 Z M 560.118 328.468 L 560.118 329.008 C 560.118 353.427 580.036 373.224 604.605 373.224 C 629.173 373.224 649.09 353.427 649.09 329.008 L 649.09 328.468 C 649.09 304.049 629.173 284.252 604.605 284.252 C 580.036 284.252 560.118 304.049 560.118 328.468 Z" style="stroke-width: 1.067; fill: rgb(174, 183, 154);"/>
    <path d="M 604.604 304.303 C 618.099 304.303 629.039 315.243 629.039 328.738 C 629.039 342.233 618.099 353.173 604.604 353.173 C 591.109 353.173 580.169 342.233 580.169 328.738 C 580.169 315.243 591.109 304.303 604.604 304.303 Z M 585.929 328.737 C 585.929 339.05 594.29 347.411 604.603 347.411 C 614.916 347.411 623.277 339.05 623.277 328.737 C 623.277 318.424 614.916 310.063 604.603 310.063 C 594.29 310.063 585.929 318.424 585.929 328.737 Z" style="stroke-width: 0.522; fill: rgb(174, 183, 154);"/>
    <path d="M 603.556 281.797 L 605.652 281.797 C 630.998 281.797 651.545 302.344 651.545 327.69 L 651.545 329.787 C 651.545 355.133 630.998 375.68 605.652 375.68 L 603.556 375.68 C 578.21 375.68 557.663 355.133 557.663 329.787 L 557.663 327.69 C 557.663 302.344 578.21 281.797 603.556 281.797 Z M 581.274 328.739 C 581.274 341.624 591.719 352.069 604.604 352.069 C 617.488 352.068 627.933 341.623 627.933 328.739 C 627.933 315.855 617.488 305.41 604.604 305.409 C 591.719 305.409 581.274 315.854 581.274 328.739 Z" style="opacity: 0.2; stroke-width: 1.002; fill: rgb(174, 183, 154);"/>
  </g>
  <rect width="149.563" height="150" id="rect3997" style="fill: url(#radialGradient4027); opacity: 0.54;" x="0.437"/>
  <rect width="149.563" height="150" id="rect-20" style="fill: url(#gradient-2); opacity: 0.54;" x="150.437"/>
  <rect width="149.563" height="150" id="rect-21" style="fill: url(#gradient-3); opacity: 0.54;" x="300.437"/>
  <rect width="149.563" height="150" id="rect-22" style="fill: url(#gradient-4); opacity: 0.54;" x="300" y="150"/>
  <rect width="150" height="150" id="rect-23" style="fill: url(#gradient-5); opacity: 0.54;" x="150" y="150"/>
  <rect width="150" height="150" id="rect-24" style="fill: url(#gradient-6); opacity: 0.54;" x="0.437" y="150"/>
  <rect width="150" height="150" id="rect-25" style="fill: url(#gradient-7); opacity: 0.54;" y="300"/>
  <rect width="150.437" height="150" id="rect-26" style="fill: url(#gradient-8); opacity: 0.54;" y="300" x="150"/>
  <rect width="149.563" height="150" id="rect-27" style="fill: url(#gradient-9); opacity: 0.54;" y="300" x="300"/>
</svg>