<?xml version="1.0" encoding="utf-8"?>
<svg xmlns="http://www.w3.org/2000/svg" width="500" height="500" style="stroke: black;" viewBox="0 0 100 100">
  <defs/>
  <symbol id="stub" viewBox="0 0 100 100">
    <path d="M -0.0000540082 -0.0000233065 L 12.4873 87.1559 L 49.9494 99.6068 L 87.4114 87.1559 L 99.8988 -0.0000233065 L -0.0000540082 -0.0000233065 Z M 79.919 24.9017 L 36.4256 24.9017 L 37.462 37.3525 L 78.6703 37.3525 L 74.9241 74.705 L 49.9494 80.9305 L 24.9747 74.705 L 23.1016 56.0288 L 37.462 56.0288 L 38.7669 65.3669 L 49.9619 68.4796 L 62.4367 65.3669 L 64.0039 49.8033 L 22.4772 49.8033 L 18.731 12.4508 L 81.1678 12.4508 L 79.919 24.9017 Z"/>
  </symbol>
  <symbol id="cross" viewBox="0 0 100 100">
    <rect width="99.9682" height="16.4267" x="-0.103552" y="40.7632" transform="" style="fill: inherit; stroke: none;"/>
    <rect width="17.0967" height="99.9682" x="41.4509" y="-0.0688862" transform="" style="fill: inherit; stroke: none;"/>
  </symbol>
  <symbol id="arrow-up" viewBox="0 0 100 100">
    <path d="M -0.0000276521 99.1538 L 99.7441 99.1538 L 49.8725 0.00000822577 Z" style="fill: inherit; stroke: none;"/>
  </symbol>
  <symbol id="arrow-down" viewBox="0 0 100 100">
    <path d="M -0.0000276521 99.1538 L 99.7441 99.1538 L 49.8725 0.00000822577 Z" style="fill: inherit; stroke: none;" transform="matrix(1 0 0 -1 0 99.1538)"/>
  </symbol>
  <symbol id="arrow-left" viewBox="0 0 100 100">
    <path d="M -0.0000276521 99.1538 L 99.7441 99.1538 L 49.8725 0.00000822577 Z" style="fill: inherit; stroke: none;" transform="matrix(0 1 1 0 0.295131 -0.29513)"/>
  </symbol>
  <symbol id="arrow-right" viewBox="0 0 100 100">
    <path d="M 0.497481 0.819135 L 0.497481 99.1454 L 98.9202 49.9827 Z" transform="" style=""/>
  </symbol>
  <symbol id="paint-linear-gradient" viewBox="0 0 100 100">
    <rect width="95.2831" height="22.3332" x="0.00000583522" y="72.4613" style="opacity: 0.82;"/>
    <rect width="91.0962" height="22.4208" x="4.99362" y="50.2263" style="opacity: 0.65;" rx="0" transform=""/>
    <rect width="91.0962" height="22.3332" x="5.08136" y="27.7945" transform="matrix(1 0 0 1 -0.0877431 0.196556)" style="opacity: 0.34;"/>
    <path d="M 804.4286499023438 19.897714614868164 L 904.4605102539062 19.897714614868164 L 904.4605102539062 119.9287109375 L 804.4286499023438 119.92914581298828 M 810.5917358398438 26.06097412109375 L 810.5917358398438 113.765869140625 L 898.2974243164062 113.765869140625 L 898.2974243164062 26.06097412109375 " transform="matrix(1 0 0 1 -804.429 -19.8977)"/>
  </symbol>
  <symbol id="paint-radial-gradient" viewBox="0 0 100 100">
    <path d="M 14.9043 36.2443 L 17.8601 34.5289 L 24.005 31.5406 L 27.1814 30.2799 L 33.7051 28.248 L 40.4016 26.8903 L 43.7929 26.4674 L 47.2011 26.215 L 54.034 26.2203 L 57.4413 26.4843 L 60.8304 26.924 L 67.5189 28.3206 L 74.0322 30.3858 L 77.2038 31.659 L 83.3428 34.6594 L 89.1705 38.2276 L 94.6464 42.3153 L 97.2421 44.5382 L 97.4288 45.0595 L 97.4288 96.2991 L 3.15778 96.2991 L 3.15778 45.0595 L 9.25385 40.0868" style="opacity: 0.3;"/>
    <path d="M 3.53262 85.98 L 6.13116 79.8147 L 7.14789 77.8287 L 10.6398 72.122 L 13.329 68.5621 L 16.2981 65.2322 L 19.5373 62.1645 L 23.032 59.3915 L 28.7115 55.8588 L 30.7088 54.8644 L 36.9564 52.4774 L 41.2872 51.4077 L 43.4868 51.0337 L 47.9275 50.6084 L 54.6134 50.7784 L 59.0248 51.4415 L 65.4669 53.2387 L 69.5884 54.9459 L 71.5842 55.9433 L 77.2665 59.472 L 80.769 62.2352 L 84.0187 65.2918 L 86.9987 68.6119 L 89.6957 72.1659 L 93.1907 77.8705 L 95.149 81.8794 L 97.5282 88.1326 L 99.2068 94.609 L 99.9268 96.5544 L 1.16179 96.5544 L 1.62201 92.392" style="opacity: 0.49;"/>
    <path d="M 55.721 71.7091 L 56.8677 71.9192 L 62.4243 73.6478 L 66.5463 75.8175 L 69.3744 77.8714 L 71.9249 80.2613 L 74.1535 82.9538 L 77.0578 87.9958 L 78.5755 92.399 L 79.1922 95.839 L 78.8163 96.2156 L 22.9626 96.2156 L 23.3385 93.5192 L 25.1114 87.9781 L 27.3487 83.8929 L 29.4578 81.1058 L 31.8979 78.6032 L 34.6314 76.4249 L 39.7217 73.606 L 44.1457 72.1477 L 47.5874 71.5368" style="opacity: 0.57;"/>
    <path d="M -0.0000155411 0.00000436906 L 99.3059 0.00000436906 L 99.3059 99.3005 L -0.0000155411 99.301 M 6.11835 6.11826 L 6.11835 93.1827 L 93.1875 93.1827 L 93.1875 6.11826"/>
  </symbol>
  <symbol id="paint-solid" viewBox="0 0 100 100">
    <rect transform="matrix(0.989683 0 0 0.989693 -263.927 -335.366)" width="92.74180391937381" height="93.30730272376019" x="270.9883757476306" y="341.67693864612323" style="opacity: 0.37;"/>
    <path d="M 804.4286499023438 19.897714614868164 L 904.4605102539062 19.897714614868164 L 904.4605102539062 119.9287109375 L 804.4286499023438 119.92914581298828 M 810.5917358398438 26.06097412109375 L 810.5917358398438 113.765869140625 L 898.2974243164062 113.765869140625 L 898.2974243164062 26.06097412109375 " transform="matrix(0.989683 0 0 0.989693 -796.13 -19.6926)"/>
  </symbol>
  <symbol id="paint-none" viewBox="0 0 100 100">
    <path d="M 0.0000117235 0.00000306616 L 99.9711 0.00000306616 L 99.9711 99.9398 L 0.0000117235 99.9402 M 6.15935 6.15764 L 6.15935 93.7825 L 93.8117 93.7825 L 93.8117 6.15764" transform="matrix(1 0 0 1 0 0)"/>
    <rect transform="matrix(1 -1.0121 1.00293 1 0 0)" width="88.6704" height="6.34357" x="-43.6613" y="46.8653"/>
  </symbol>
  <symbol id="paint-pattern" viewBox="0 0 100 100">
    <path d="M 0.0000117235 0.00000306616 L 99.9711 0.00000306616 L 99.9711 99.9398 L 0.0000117235 99.9402 M 6.15935 6.15764 L 6.15935 93.7825 L 93.8117 93.7825 L 93.8117 6.15764" transform="matrix(1 0 0 1 0 0)"/>
    <rect y="20.5421" x="21.0093" height="23.6599" width="23.5468"/>
    <rect width="23.5468" height="23.6599" x="54.9537" y="20.5421"/>
    <rect width="23.5468" height="23.6599" x="21.0093" y="55.8484"/>
    <rect y="55.8484" x="54.9537" height="23.6599" width="23.5468"/>
  </symbol>
  <symbol id="grab-color" viewBox="0 0 100 100">
    <path d="M 93.345 25.8052 C 98.6443 20.5848 103.77 13.663 96.3399 6.34508 L 93.345 3.39707 C 85.8261 -4 78.4596 1.53743 73.5754 6.34508 L 60.071 19.6382 C 59.8676 19.8425 59.7109 20.0718 59.533 20.2887 L 52.9544 13.809 C 51.5947 12.4704 49.4131 12.4371 48.0914 13.7381 L 42.1017 19.6341 C 40.78 20.935 40.8097 23.0825 42.1737 24.4209 L 46.8969 29.066 L 8.85723 66.5104 C 5.79035 69.5251 4.2103 74.6122 5.09988 78.6109 C 5.09988 78.857 4.79911 79.6909 4.54072 79.9661 L 3.04963 81.4338 C -0.915306 85.3368 -1.00003 91.6039 2.859 95.4067 C 6.72228 99.2094 13.089 99.126 17.054 95.2232 L 18.5535 93.7471 C 18.8247 93.501 19.6803 93.205 20.0616 93.2218 C 23.9841 94.0764 29.1563 92.5211 32.219 89.5066 L 70.2586 52.0621 L 74.9776 56.7073 C 76.3373 58.0457 78.5189 58.0791 79.8363 56.7781 L 85.8261 50.8821 C 87.1477 49.5811 87.1181 47.438 85.7541 46.0994 L 79.1755 39.6197 C 79.3958 39.4445 79.6288 39.2944 79.8363 39.0901 L 93.345 25.8052 Z M 28.0211 85.3867 C 26.3733 87.0089 23.3021 87.9595 21.1884 87.5093 C 19.0788 87.0547 15.9992 88.0053 14.3556 89.6275 L 12.8561 91.1036 C 11.2082 92.7255 8.59885 92.8047 7.05269 91.2868 C 5.51078 89.7692 5.5955 87.1965 7.24332 85.5743 L 8.74286 84.0982 C 10.3907 82.4762 11.3565 79.4532 10.8948 77.3725 C 10.433 75.296 11.3989 72.2687 13.0467 70.6509 L 51.0906 33.2066 L 66.0692 47.9466 L 28.0211 85.3867 Z"/>
    <path style="opacity: 0.3;" d="M 13.6016 70.0963 L 13.0425 70.6467 C 11.3946 72.2687 10.4288 75.2918 10.8905 77.3683 C 11.3523 79.4491 10.3865 82.4762 8.73864 84.0941 L 7.23908 85.5702 C 5.59126 87.1921 5.50654 89.7649 7.04845 91.2827 C 8.59461 92.8006 11.204 92.7214 12.8518 91.0992 L 14.3514 89.6231 C 15.9992 88.0012 19.0746 87.0504 21.1841 87.5049 C 23.2979 87.9554 26.3733 87.0046 28.0169 85.3826 L 43.5546 70.0963 L 13.6016 70.0963 Z"/>
  </symbol>
  <symbol id="cap-butt" viewBox="0 0 100 100">
    <path d="M 99.6499 42.184 L 86.6923 42.184 L 86.375 57.2479 L 99.6499 57.2479 L 99.6499 99.9072 L 0.00000988212 99.9072 L 0.00000988212 -0.00000371061 L 99.6499 -0.00000371061 M 63.0261 42.3362 L 62.7087 57.3999 L 77.5641 57.3999 L 77.5641 42.3362 M 42.6014 42.2177 L 42.284 57.2815 L 56.1544 57.2815 L 56.1544 42.2177 M 21.3295 42.1577 L 21.0121 57.2215 L 34.2915 57.2215 L 34.2915 42.1577 M 0.412599 42.1318 L 0.095254 57.1956 L 13.5716 57.1956 L 13.5716 42.1318"/>
  </symbol>
  <symbol id="cap-round" viewBox="0 0 100 100">
    <path d="M 100.66193389892578 13.335620880126953 L 100.93763732910156 93.34052276611328 L 39.584922790527344 93.3328628540039 L 34.92451477050781 91.99586486816406 L 27.38390350341797 89.1011962890625 L 19.995952606201172 85.01957702636719 L 14.500313758850098 80.78273010253906 L 9.715535163879395 75.6933364868164 L 7.686641693115234 72.85466003417969 L 4.940603256225586 68.31756591796875 L 2.9080967903137207 63.48488235473633 L 1.7198643684387207 59.73046875 L 1.4845277070999146 48.513427734375 L 3.4395267963409424 43.072593688964844 L 6.664698600769043 36.86363983154297 L 10.361530303955078 30.92340850830078 L 14.092456817626953 26.15569305419922 L 17.481191635131836 22.690275192260742 L 21.235492706298828 19.625837326049805 L 27.297760009765625 16.141996383666992 L 31.30921745300293 14.585805892944336 L 36.03076934814453 13.498968124389648 L 40.857261657714844 13.069207191467285 M 88.24776458740234 47.82048797607422 L 87.90478515625 61.33856964111328 L 100.11021423339844 61.33856964111328 L 100.11021423339844 47.82048797607422 M 42.24263381958008 47.82048797607422 L 41.899654388427734 61.33856964111328 L 54.10508728027344 61.33856964111328 L 54.10508728027344 47.82048797607422 M 66.02758026123047 47.82048797607422 L 65.68460083007812 61.33856964111328 L 77.89002990722656 61.33856964111328 L 77.89002990722656 47.82048797607422 "/>
  </symbol>
  <symbol id="cap-square" viewBox="0 0 100 100">
    <path d="M 99.64990234375 42.183998107910156 L 86.69229888916016 42.183998107910156 L 86.375 57.247901916503906 L 99.64990234375 57.247901916503906 L 99.64990234375 99.9072036743164 L 0.000009882121048576664 99.9072036743164 L 0.000009882121048576664 -0.0000037106103718542727 L 99.64990234375 -0.0000037106103718542727 M 63.026100158691406 42.33620071411133 L 62.70869827270508 57.399898529052734 L 77.56410217285156 57.399898529052734 L 77.56410217285156 42.33620071411133 M 42.60139846801758 42.21770095825195 L 42.284000396728516 57.28150177001953 L 56.15439987182617 57.28150177001953 L 56.15439987182617 42.21770095825195 "/>
  </symbol>
  <symbol id="flip-y" viewBox="0 0 100 100">
    <path d="M 100.105 43.7277 C 100.105 43.7277 1.60519 43.7277 1.60519 43.7277 C 1.60519 43.7277 1.60519 2.66947 1.60519 2.66947 C 1.60519 2.66947 99.5455 43.7339 99.5455 43.7339" style="stroke-width: 3px; stroke-linecap: butt; stroke-linejoin: miter;"/>
    <path d="M 92.0139 61.4275 L 98.4804 58.2594 L 1.60523 58.2594 L 1.60523 99.5316 M 4.59854 61.5658 L 85.7077 60.9077 L 84.4541 61.9377 L 4.59854 95.1088"/>
  </symbol>
  <symbol id="flip-x" viewBox="0 0 100 100">
    <path d="M 43.4823 0.781598 C 43.4823 0.781598 43.4823 100.35 43.4823 100.35 C 43.4823 100.35 2.42403 100.35 2.42403 100.35 C 2.42403 100.35 43.4885 1.34717 43.4885 1.34717" style="stroke-width: 3px; stroke-linecap: butt; stroke-linejoin: miter;"/>
    <path d="M 61.1821 7.36423 L 58.014 0.713376 L 58.014 100.35 L 99.2862 100.35 M 61.3204 97.2718 L 60.6623 13.8502 L 61.6923 15.1396 L 94.8634 97.2718"/>
  </symbol>
  <symbol id="group" viewBox="0 0 100 100">
    <path d="M 33.429935455322266 72.44976043701172 L 7.131647109985352 72.44976043701172 L 7.131647109985352 72.66356658935547 L -0.13779889047145844 72.66356658935547 L -0.13779889047145844 2.534794807434082 L 0.8622011095285416 2.534794807434082 L 0.851409912109375 -0.24469949305057526 L 66.78385925292969 -0.24469949305057526 L 66.78385925292969 7.024746417999268 L 66.57005310058594 7.024746417999268 L 66.57005310058594 30.11592674255371 L 93.0821533203125 30.11592674255371 L 93.0821533203125 29.90212059020996 L 100.1377944946289 29.90212059020996 L 100.1377944946289 100.45851135253906 L 33.429935455322266 100.45850372314453 M 40.271766662597656 92.76144409179688 L 93.0821533203125 92.76144409179688 L 93.0821533203125 36.74394989013672 L 66.57005310058594 36.74394989013672 L 66.57005310058594 36.957759857177734 L 59.72822570800781 36.957759857177734 L 59.72822570800781 7.024746417999268 L 7.131647109985352 7.024746417999268 L 7.131647109985352 65.39411926269531 L 40.271766662597656 65.39411926269531 "/>
  </symbol>
  <symbol id="ungroup" viewBox="0 0 100 100">
    <path d="M 65.82174682617188 27.764007568359375 L 100.1378173828125 27.764007568359375 L 100.03095245361328 34.819644927978516 L 100.03095245361328 92.97521209716797 L 100.1378173828125 100.03085327148438 L 34.28520202636719 100.03085327148438 L 35 96 L 34.178314208984375 95.53099822998047 L 34.178314208984375 72.44975280761719 L -0.13779889047145844 72.44975280761719 L 0.8622011095285416 68.1635971069336 L 0.1829535961151123 68.1635971069336 L 0.1829535961151123 7.024746417999268 L -0.13779889047145844 7.024746417999268 L 0.18295076489448547 3.2830810546875 L 0.8622011095285416 3.2830810546875 L 0.8343048095703125 -0.03089224174618721 L 65.7148208618164 -0.03089224174618721 L 65.82174682617188 1.7864761352539062 M 41.23394775390625 72.44975280761719 L 41.23394775390625 92.97521209716797 L 92.97531127929688 92.97521209716797 L 92.97531127929688 34.819644927978516 L 65.82174682617188 34.819644927978516 L 65.82174682617188 67.63909912109375 L 65.7148208618164 72.44975280761719 M 7.238589286804199 7.024746417999268 L 7.238589286804199 65.39411163330078 L 34.178314208984375 65.39411163330078 L 34.17831039428711 30.650482177734375 L 35.28520202636719 30.650482177734375 L 35.25730895996094 27.764007568359375 L 58.76611328125 27.764007568359375 L 58.76611328125 7.024746417999268 M 41.23394775390625 34.819644927978516 L 41.23394775390625 65.39411163330078 L 58.76611328125 65.39411163330078 L 58.76611328125 34.819644927978516 "/>
  </symbol>
  <symbol id="raise" viewBox="0 0 100 100">
    <rect width="99.8035" height="15.1242" x="0.222308" y="84.9215" transform="" style=""/>
    <path d="M 80.8041 41.8225 L 58.5662 41.8225 L 58.5662 73.5243 C 58.5662 74.5326 57.8986 75.4286 57.1223 75.4286 L 43.1158 75.4286 C 42.3469 75.4286 41.6795 74.5326 41.6795 73.5243 L 41.6795 41.8225 L 19.4415 41.8225 C 18.4103 41.8225 18.084 41.1132 18.7139 40.3288 L 48.9733 1.38312 C 49.6034 0.561283 50.6347 0.561283 51.2647 1.38312 L 81.5242 40.2914 C 82.1616 41.1132 81.8316 41.8225 80.8041 41.8225 Z"/>
  </symbol>
  <symbol id="lower" viewBox="0 0 100 100">
    <rect width="99.8035" height="15.1242" x="0.222308" y="84.9215" transform="matrix(1 0 0 -1 0 100.607)" style=""/>
    <path d="M 80.8041 41.8225 L 58.5662 41.8225 L 58.5662 73.5243 C 58.5662 74.5326 57.8986 75.4286 57.1223 75.4286 L 43.1158 75.4286 C 42.3469 75.4286 41.6795 74.5326 41.6795 73.5243 L 41.6795 41.8225 L 19.4415 41.8225 C 18.4103 41.8225 18.084 41.1132 18.7139 40.3288 L 48.9733 1.38312 C 49.6034 0.561283 50.6347 0.561283 51.2647 1.38312 L 81.5242 40.2914 C 82.1616 41.1132 81.8316 41.8225 80.8041 41.8225 Z" transform="matrix(1 0 0 -1 0 100.607)"/>
  </symbol>
  <symbol id="rotate-clockwise" viewBox="0 0 100 100">
    <path d="M 57.31306838989258 1.802018165588379 L 87.33811950683594 26.087142944335938 L 50.12649917602539 45.433101654052734 L 52 27 L 51.05759811401367 26.694700241088867 L 47.57170104980469 27.342300415039062 L 43.10530090332031 28.882999420166016 L 37.60407638549805 32.20130920410156 L 33.891136169433594 35.594844818115234 L 30.44190216064453 40.21726989746094 L 28.58449935913086 43.761600494384766 L 27.301197052001953 47.64904022216797 L 26.710041046142578 59.13525390625 L 27.7216796875 63.15734100341797 L 29.129457473754883 66.84071350097656 L 30.812681198120117 69.87626647949219 L 32.851776123046875 72.68585205078125 L 35.27330017089844 75.26730346679688 L 40.408260345458984 78.91777801513672 L 43.114498138427734 80.48179626464844 L 48.9116096496582 82.31613159179688 L 58.13610076904297 82.71279907226562 L 62.60737228393555 81.71542358398438 L 66.89738464355469 80.05593872070312 L 71.19550323486328 77.56649780273438 L 74.39559936523438 74.78089904785156 L 77.36540222167969 71.26985168457031 L 80.74346923828125 65.26451873779297 L 81.7865982055664 62.30160140991211 L 82.6712417602539 55.34519958496094 L 93.91210174560547 55.34519958496094 L 93.64302062988281 59.25519561767578 L 93.2739028930664 62.0901985168457 L 92.2008056640625 66.16767883300781 L 89.84104919433594 72.07090759277344 L 86.59728240966797 77.54715728759766 L 83.60945892333984 81.27165222167969 L 79.72480010986328 84.97180938720703 L 76.03165435791016 87.71790313720703 L 70.6187973022461 90.69940185546875 L 64.39140319824219 92.84629821777344 L 56.500885009765625 93.85403442382812 L 48.03260040283203 93.49359893798828 L 40.6911735534668 91.36244201660156 L 38.340850830078125 90.50409698486328 L 32.76524353027344 87.42607879638672 L 28.830350875854492 84.42703247070312 L 25.349000930786133 81.0155029296875 L 22.280799865722656 77.13999938964844 L 18.59868621826172 70.57894897460938 L 17.144899368286133 66.84819793701172 L 15.769469261169434 60.71974563598633 L 15.373451232910156 51.522438049316406 L 16.01368522644043 46.96308517456055 L 17.247203826904297 42.525413513183594 L 19.00189971923828 37.944000244140625 L 22.311389923095703 32.22267532348633 L 26.059734344482422 27.667049407958984 L 29.528484344482422 24.390275955200195 L 33.9730339050293 21.243045806884766 L 38.57500076293945 18.708200454711914 L 45.017433166503906 16.52610206604004 L 51.302799224853516 15.494400024414062 L 53.12649917602539 15.673199653625488 L 55.21371078491211 1.03558349609375 "/>
  </symbol>
  <symbol id="rotate-counterclockwise" viewBox="0 0 100 100">
    <path d="M 57.31306838989258 1.802018165588379 L 87.33811950683594 26.087142944335938 L 50.12649917602539 45.433101654052734 L 52 27 L 51.05759811401367 26.694700241088867 L 47.57170104980469 27.342300415039062 L 43.10530090332031 28.882999420166016 L 37.60407638549805 32.20130920410156 L 33.891136169433594 35.594844818115234 L 30.44190216064453 40.21726989746094 L 28.58449935913086 43.761600494384766 L 27.301197052001953 47.64904022216797 L 26.710041046142578 59.13525390625 L 27.7216796875 63.15734100341797 L 29.129457473754883 66.84071350097656 L 30.812681198120117 69.87626647949219 L 32.851776123046875 72.68585205078125 L 35.27330017089844 75.26730346679688 L 40.408260345458984 78.91777801513672 L 43.114498138427734 80.48179626464844 L 48.9116096496582 82.31613159179688 L 58.13610076904297 82.71279907226562 L 62.60737228393555 81.71542358398438 L 66.89738464355469 80.05593872070312 L 71.19550323486328 77.56649780273438 L 74.39559936523438 74.78089904785156 L 77.36540222167969 71.26985168457031 L 80.74346923828125 65.26451873779297 L 81.7865982055664 62.30160140991211 L 82.6712417602539 55.34519958496094 L 93.91210174560547 55.34519958496094 L 93.64302062988281 59.25519561767578 L 93.2739028930664 62.0901985168457 L 92.2008056640625 66.16767883300781 L 89.84104919433594 72.07090759277344 L 86.59728240966797 77.54715728759766 L 83.60945892333984 81.27165222167969 L 79.72480010986328 84.97180938720703 L 76.03165435791016 87.71790313720703 L 70.6187973022461 90.69940185546875 L 64.39140319824219 92.84629821777344 L 56.500885009765625 93.85403442382812 L 48.03260040283203 93.49359893798828 L 40.6911735534668 91.36244201660156 L 38.340850830078125 90.50409698486328 L 32.76524353027344 87.42607879638672 L 28.830350875854492 84.42703247070312 L 25.349000930786133 81.0155029296875 L 22.280799865722656 77.13999938964844 L 18.59868621826172 70.57894897460938 L 17.144899368286133 66.84819793701172 L 15.769469261169434 60.71974563598633 L 15.373451232910156 51.522438049316406 L 16.01368522644043 46.96308517456055 L 17.247203826904297 42.525413513183594 L 19.00189971923828 37.944000244140625 L 22.311389923095703 32.22267532348633 L 26.059734344482422 27.667049407958984 L 29.528484344482422 24.390275955200195 L 33.9730339050293 21.243045806884766 L 38.57500076293945 18.708200454711914 L 45.017433166503906 16.52610206604004 L 51.302799224853516 15.494400024414062 L 53.12649917602539 15.673199653625488 L 55.21371078491211 1.03558349609375 " transform="matrix(-1 0 0 1 109.286 0)"/>
  </symbol>
  <symbol id="join-round" viewBox="0 0 100 100">
    <path style="fill: none; stroke-width: 9px;" d="M 56.4132 107.252 C 56.4132 107.252 56.1202 54.7257 56.1202 54.7257 C 56.1202 54.7257 103.264 54.7257 103.264 54.7257" transform=""/>
    <path style="fill: none; stroke-width: 10px; stroke-dashoffset: 17px; stroke-linecap: butt; stroke-dasharray: 12px;" d="M 32.0556 104.326 C 32.0556 104.326 32.934 30.735 32.934 30.735 C 32.934 30.735 98.2319 31.0088 98.2319 31.0088" transform=""/>
    <path style="fill: none; stroke-width: 9px;" d="M 7.77826 104.232 C 7.77826 104.232 7.4556 48.1549 7.4556 48.1549 C 7.4556 48.1549 3.26061 9.26297 41.6613 7.75551 C 80.0619 6.24808 99.7463 7.15254 99.7463 7.15254" transform=""/>
  </symbol>
  <symbol id="join-bevel" viewBox="0 0 100 100">
    <path style="fill: none; stroke-width: 9px;" d="M 57.0088 100.318 C 57.0088 100.318 56.7063 52.5055 56.7063 52.5055 C 56.7063 52.5055 105.381 52.5055 105.381 52.5055" transform=""/>
    <path style="fill: none; stroke-dasharray: 10px; stroke-width: 6px; stroke-dashoffset: 17px; stroke-linecap: butt;" d="M 31.8598 96.3401 C 31.8598 96.3401 32.7667 31.3036 32.7667 31.3036 C 32.7667 31.3036 100.186 31.5456 100.186 31.5456" transform=""/>
    <path style="fill: none; stroke-width: 9px;" d="M 6.12722 99.9871 C 6.12722 99.9871 6.12722 38.1725 6.12722 38.1725 C 6.12722 38.1725 41.1112 6.73235 41.1112 6.73235 C 41.1112 6.73235 100.75 6.46592 100.75 6.46592" transform=""/>
  </symbol>
  <symbol id="join-miter" viewBox="0 0 100 100">
    <path style="fill: none; stroke-width: 9px;" d="M 4.58627 109.105 C 4.58627 109.105 4.58627 4.87903 4.58627 4.87903 C 4.58627 4.87903 99.8444 4.87903 99.8444 4.87903" transform=""/>
    <path style="fill: none; stroke-width: 9px;" d="M 54.9809 112.008 C 54.9809 112.008 54.6734 56.2663 54.6734 56.2663 C 54.6734 56.2663 104.146 56.2663 104.146 56.2663" transform=""/>
    <path style="fill: none; stroke-dasharray: 10px; stroke-width: 8px; stroke-dashoffset: 17px; stroke-linecap: butt;" d="M 26.7107 107.944 C 26.7107 107.944 27.6325 29.8467 27.6325 29.8467 C 27.6325 29.8467 96.1568 30.1373 96.1568 30.1373" transform=""/>
  </symbol>
  <symbol id="lock-on" viewBox="0 0 100 100">
    <rect ry="3.6793182" rx="2.7526429" y="2.35869" x="23.7102" height="88.7504" width="56.3477" id="rect10365" style="color: rgb(0, 0, 0); fill: none; stroke: rgb(1, 1, 1); stroke-width: 9px; stroke-miterlimit: 4; stroke-opacity: 1; stroke-dasharray: none; marker-start: none; marker-mid: none; marker-end: none; visibility: visible; display: inline; overflow: visible; enable-background: accumulate; opacity: 0.5;" transform="matrix(1 0 0 1 0 2.35188)"/>
    <rect y="48.4273" x="16.2966" height="51.4769" width="71.3618" style="color: rgb(0, 0, 0); fill: url(#linearGradient17475); fill-opacity: 1; fill-rule: evenodd; stroke: none; stroke-width: 0.95415854px; marker-start: none; marker-mid: none; marker-end: none; visibility: visible; display: inline; overflow: visible; enable-background: accumulate;" transform=""/>
  </symbol>
  <symbol id="lock-off" viewBox="0 0 100 100">
    <clipPath clipPathUnits="userSpaceOnUse" id="lock-off-clip-path">
      <path d="M 68.0667 63.4699 C 76.4764 61.6882 84.8862 59.8352 93.296 57.9109 C 91.8706 37.3141 90.3739 16.7173 88.806 -3.87943 C 64.0044 -3.9507 39.0602 -4.02196 13.9735 -4.09323 C 14.0448 1.8221 14.116 7.80871 14.1873 13.8666 C 20.5338 13.8666 26.8092 13.8666 33.0133 13.8666 C 43.7712 29.6171 54.4579 45.3675 65.0734 61.118" style="fill: none;"/>
    </clipPath>
    <rect ry="3.6793182" rx="2.7526429" y="2.35869" x="23.7102" height="88.7504" width="56.3477" style="fill: none; stroke: rgb(0, 0, 0); stroke-width: 9px; opacity: 0.5; clip-path: url(#lock-off-clip-path);" transform="matrix(1 0 0 1 0 2.35188)"/>
    <rect y="48.4273" x="16.2966" height="51.4769" width="71.3618"/>
  </symbol>
  <symbol id="tool-rect" viewBox="0 0 100 100">
    <rect ry="0" rx="0" style="fill: inherit; stroke: inherit; fill-opacity: 0.25; stroke-opacity: 1; stroke-width: 10px;" width="89.3685" height="89.9149" x="5.46756" y="5.06739" transform=""/>
  </symbol>
  <symbol id="tool-ellipse" viewBox="0 0 100 100">
    <ellipse cx="49.9352" cy="49.9352" rx="45.0262" ry="45.0401" style="fill: inherit; stroke: inherit; fill-opacity: 0.25; stroke-opacity: 1; stroke-width: 10px;"/>
  </symbol>
  <symbol id="tool-edit" viewBox="0 0 100 100">
    <path style="fill: inherit; stroke: none;" d="M 94.13400268554688 50 L 417.8659973144531 303.02801513671875 L 218.58299255371094 303.02801513671875 L 94.13400268554688 462 Z" transform="matrix(0.23716296255588534, -0.08118586242198947, 0.08118586242198947, 0.23716296255588534, -24.66974584791396, -2.4195545212427803)"/>
  </symbol>
  <symbol id="tool-transform" viewBox="0 0 100 100">
    <path style="fill: inherit; stroke: none;" d="M 121.552001953125 50 L 390.447998046875 260.7829895019531 L 275.5679931640625 280.3269958496094 L 348.6260070800781 429.260986328125 L 281.63800048828125 462 L 208.156005859375 311.64898681640625 L 121.552001953125 390.2869873046875 Z" transform="matrix(0.2709282611193272, -0.09598143852778523, 0.09685413371698041, 0.27339163105545716, -36.7964760076254, -0.6160354513653674)"/>
  </symbol>
  <symbol id="tool-pan" viewBox="0 0 100 100">
    <path d="M 4.41624 78.4866 C 4.41624 78.4866 4.64526 41.6138 4.64526 41.6138 C 4.64526 41.6138 21.8221 40.9267 21.8221 40.9267 C 21.8221 40.9267 23.4252 9.77947 23.4252 9.77947 C 23.4252 9.77947 39.915 10.0085 39.915 10.0085 C 39.915 10.0085 44.9535 4.51192 44.9535 4.51192 C 44.9535 4.51192 56.8627 4.51192 56.8627 4.51192 C 56.8627 4.51192 60.9851 9.32143 60.9851 9.32143 C 60.9851 9.32143 74.4976 10.0085 74.4976 10.0085 C 74.4976 10.0085 78.391 16.1922 78.391 16.1922 C 78.391 16.1922 77.7039 22.1468 77.7039 22.1468 C 77.7039 22.1468 93.0485 22.1468 93.0485 22.1468 C 93.0485 22.1468 97.1709 27.8723 97.1709 27.8723 C 97.1709 27.8723 95.7968 79.8608 95.7968 79.8608 C 95.7968 79.8608 89.1551 91.541 89.1551 91.541 C 89.1551 91.541 77.4749 97.0376 77.4749 97.0376 C 77.4749 97.0376 24.5703 95.8925 24.5703 95.8925 C 24.5703 95.8925 15.1803 89.7089 15.1803 89.7089 C 15.1803 89.7089 4.18722 78.4866 4.18722 78.4866" style="fill: inherit; stroke: none; fill-opacity: 0.25;" transform=""/>
    <path d="M 90.4924 18.7501 L 81.1333 18.7501 L 81.1333 15.6323 C 81.1333 10.4718 76.9349 6.2737 71.7741 6.2737 L 61.8876 6.2737 C 60.5974 2.64393 57.1312 0.0380614 53.0609 0.0380614 L 46.8249 0.0380614 C 42.7545 0.0380614 39.2884 2.64393 37.9982 6.2737 L 28.1065 6.2737 C 22.9507 6.2737 18.7524 10.4718 18.7524 15.6323 L 18.7524 37.4621 L 9.39326 37.4621 C 4.23751 37.4621 0.0392344 41.6602 0.0392344 46.8207 L 0.0392344 74.8912 C 0.0392344 77.8043 1.38577 80.5228 3.66924 82.289 L 19.9249 97.6221 L 20.3037 97.9804 L 20.744 98.2774 C 22.28 99.3064 24.0771 99.8491 25.9305 99.8491 L 74.8973 99.8491 C 88.6596 99.8491 99.8465 88.6577 99.8465 74.8964 L 99.8465 28.1138 C 99.8465 22.9481 95.6584 18.7501 90.4924 18.7501 Z M 93.6105 74.8912 C 93.6105 85.2276 85.2343 93.6032 74.8973 93.6032 L 25.9305 93.6032 C 25.3161 93.6032 24.7171 93.424 24.2052 93.081 L 7.66791 77.4869 C 6.79746 76.9033 6.27528 75.9305 6.27528 74.8912 L 6.27528 46.8207 C 6.27528 45.1005 7.67299 43.7029 9.39326 43.7029 L 18.7524 43.7029 L 18.7524 65.5327 C 18.7524 67.2528 20.1502 68.6505 21.8704 68.6505 C 23.5907 68.6505 24.9885 67.2528 24.9885 65.5327 L 24.9885 15.6323 C 24.9885 13.9121 26.3862 12.5144 28.1065 12.5144 L 37.4657 12.5144 L 37.4657 53.0563 C 37.4657 54.7816 38.8634 56.1792 40.5836 56.1792 C 42.3091 56.1792 43.7068 54.7816 43.7068 53.0563 L 43.7068 9.39149 C 43.7068 7.67132 45.0994 6.2737 46.8249 6.2737 L 53.0609 6.2737 C 54.7812 6.2737 56.1789 7.67132 56.1789 9.39149 L 56.1789 53.0563 C 56.1789 54.7816 57.5766 56.1792 59.302 56.1792 C 61.0223 56.1792 62.4201 54.7816 62.4201 53.0563 L 62.4201 12.5144 L 71.7741 12.5144 C 73.4995 12.5144 74.8973 13.9121 74.8973 15.6323 L 74.8973 59.297 C 74.8973 61.0172 76.295 62.4149 78.0152 62.4149 C 79.7355 62.4149 81.1333 61.0172 81.1333 59.297 L 81.1333 24.9857 L 90.4924 24.9857 C 92.2128 24.9857 93.6105 26.3833 93.6105 28.1086 L 93.6105 74.8912 Z" style="fill: inherit; fill-opacity: 1; stroke: none;" transform=""/>
  </symbol>
  <symbol id="tool-cubic-bezier" viewBox="0 0 100 100">
    <path style="fill: none; stroke: inherit; stroke-width: 7px; opacity: 0.5;" d="M 16.4379 31.9888 L 3.21542 94.1625" transform=""/>
    <path style="fill: none; stroke: inherit; stroke-width: 7px; opacity: 0.5;" d="M 84.0269 30.8755 L 96.9886 93.8648" transform=""/>
    <path style="fill: none; stroke: inherit; stroke-width: 12px; stroke-linecap: round; stroke-linejoin: miter; stroke-miterlimit: 4;" d="M 6.05643 94.0737 C 6.05643 94.0737 45.9134 46.3974 94.2038 94.0737"/>
    <ellipse cx="81.2478" cy="18.22" rx="13.7663" ry="13.7663" style="fill: none; stroke: inherit; stroke-width: 9px;" transform=""/>
    <ellipse cx="18.3308" cy="18.4385" rx="13.7663" ry="13.7663" style="fill: none; stroke: inherit; stroke-width: 9px;" transform=""/>
  </symbol>
  <symbol id="tool-quadratic-bezier" viewBox="0 0 100 100">
    <path style="fill: none; stroke: inherit; stroke-width: 7px; opacity: 0.5;" d="M 42.0423 30.3489 L 3.07342 93.969" transform=""/>
    <path style="fill: none; stroke: inherit; stroke-width: 7px; opacity: 0.5;" d="M 57.2707 30.682 L 96.8466 93.6713" transform=""/>
    <path style="fill: none; stroke: inherit; stroke-width: 12px; stroke-linecap: round; stroke-linejoin: miter; stroke-miterlimit: 4;" d="M 5.91394 93.8802 C 5.91394 93.8802 45.7709 46.2039 94.0613 93.8802"/>
    <ellipse cx="48.9948" cy="18.8944" rx="13.7663" ry="13.7663" style="fill: none; stroke: inherit; stroke-width: 9px;" transform=""/>
  </symbol>
  <symbol id="tool-zoom" viewBox="0 0 100 100">
    <path d="M 67.0778 37.2422 C 67.0778 54.4335 53.3776 68.3699 36.4775 68.3699 C 19.5774 68.3699 5.87721 54.4335 5.87721 37.2422 C 5.87721 20.0507 19.5774 6.11439 36.4775 6.11439 C 53.3776 6.11439 67.0778 20.0507 67.0778 37.2422 Z" style="fill: none; stroke: inherit; stroke-width: 10px;" transform=""/>
    <path d="M 56.28 59.8705 C 56.28 59.8705 95.5512 95.007 95.5512 95.007" style="fill: none; stroke: inherit; stroke-width: 12px;" transform=""/>
  </symbol>
  <symbol id="tool-freehand" viewBox="0 0 100 100">
    <rect x="40.782" y="-40.5396" transform="matrix(1 0.997955 -1.00233 1 0 0)" width="18.533" height="11.0933" style="fill: inherit; stroke: none;"/>
    <path d="M 66.6257 14.8938 L 7.33505 74.0549 L -0.075629 96.2435 L 3.62971 99.9357 L 25.867 92.5412 L 85.1576 33.38 L 66.6257 14.8938 Z M 23.0317 87.9757 L 6.355 93.5243 L 11.9104 76.884 L 14.7405 74.0601 L 25.8618 85.1519 L 23.0317 87.9757 Z" style="fill: inherit; stroke: none;" transform=""/>
  </symbol>
  <symbol id="tool-text" viewBox="0 0 100 100">
    <path d="M 12.2189 0.861351 L 94.1166 0.861351 L 94.1166 29.5893 L 87.1553 29.5893 C 85.5175 21.7917 86.3362 16.8669 83.8794 14.4045 C 81.4226 11.9422 74.8706 9.06933 66.6808 9.06933 L 61.3575 9.06933 L 61.3575 86.6347 C 61.3575 92.3803 62.1766 92.7907 63.8144 94.022 C 65.4524 95.2531 67.9092 96.074 73.6422 96.4843 L 73.6422 99.3571 L 32.6933 99.3571 L 32.6933 96.4843 C 38.8356 96.074 40.8831 94.8427 42.5211 93.6115 C 44.1592 92.3804 44.978 91.5596 44.978 85.4036 L 44.978 9.06933 L 38.0166 9.06933 C 30.2365 9.06933 24.9129 11.9422 22.0467 14.4045 C 19.1802 16.8669 20.4087 21.7917 19.1802 29.5893 L 12.2189 29.5893 L 12.2189 0.861351 L 12.2189 0.861351 Z" transform="matrix(1 0 0 1 -3.05848 0)" style="fill: inherit; stroke: none;"/>
  </symbol>
  <symbol id="zoom-in" viewBox="0 0 100 100">
    <path d="M 43.456 0.177261 C 19.5621 0.177261 0.126505 19.4295 0.126505 43.3771 C 0.126505 67.3246 19.5621 86.803 43.456 86.803 C 67.3514 86.803 86.5607 67.3246 86.5607 43.3771 C 86.5607 19.4295 67.3514 0.177261 43.456 0.177261 Z M 43.456 13.2955 C 60.1333 13.2955 73.472 26.6636 73.472 43.3771 C 73.472 60.0905 60.1333 73.6848 43.456 73.6848 C 26.7802 73.6848 13.216 60.0905 13.216 43.3771 C 13.216 26.6636 26.7802 13.2955 43.456 13.2955 Z" style="fill: inherit; stroke: none;" transform=""/>
    <rect transform="matrix(1 1.03607 -1.03151 1 0 0)" y="-6.68031" x="64.9276" height="10.3162" width="28.08" style="fill: inherit; stroke: none;"/>
    <rect y="37.689" x="24.0388" height="12.9477" width="38.7576" style="fill: inherit; stroke: none;" transform=""/>
    <rect style="fill: inherit; stroke: none;" width="0.00108437" height="0.000362254" x="0.000698789" y="-0.00139848" transform="matrix(1 35821 -35663.3 1 0 0)"/>
  </symbol>
  <symbol id="zoom-out" viewBox="0 0 100 100">
    <path d="M 43.456 0.177261 C 19.5621 0.177261 0.126505 19.4295 0.126505 43.3771 C 0.126505 67.3246 19.5621 86.803 43.456 86.803 C 67.3514 86.803 86.5607 67.3246 86.5607 43.3771 C 86.5607 19.4295 67.3514 0.177261 43.456 0.177261 Z M 43.456 13.2955 C 60.1333 13.2955 73.472 26.6636 73.472 43.3771 C 73.472 60.0905 60.1333 73.6848 43.456 73.6848 C 26.7802 73.6848 13.216 60.0905 13.216 43.3771 C 13.216 26.6636 26.7802 13.2955 43.456 13.2955 Z" style="fill: inherit; stroke: none;" transform=""/>
    <rect transform="matrix(1 1.03607 -1.03151 1 0 0)" y="-6.68031" x="64.9276" height="10.3162" width="28.08" style="fill: inherit; stroke: none;"/>
    <rect y="37.689" x="24.0388" height="12.9477" width="38.7576" style="fill: inherit; stroke: none;" transform=""/>
  </symbol>
  <symbol id="zoom-to-11" viewBox="0 0 100 100">
    <path d="M 43.456 0.177261 C 19.5621 0.177261 0.126505 19.4295 0.126505 43.3771 C 0.126505 67.3246 19.5621 86.803 43.456 86.803 C 67.3514 86.803 86.5607 67.3246 86.5607 43.3771 C 86.5607 19.4295 67.3514 0.177261 43.456 0.177261 Z M 43.456 13.2955 C 60.1333 13.2955 73.472 26.6636 73.472 43.3771 C 73.472 60.0905 60.1333 73.6848 43.456 73.6848 C 26.7802 73.6848 13.216 60.0905 13.216 43.3771 C 13.216 26.6636 26.7802 13.2955 43.456 13.2955 Z" style="fill: inherit; stroke: none;" transform=""/>
    <rect transform="matrix(1 1.03607 -1.03151 1 0 0)" y="-6.68031" x="64.9276" height="10.3162" width="28.08" style="fill: inherit; stroke: none;"/>
    <path d="M 36.0262 57.0451 L 17.9216 57.0451 L 17.9216 52.2613 L 23.6989 52.2613 L 23.6989 37.7813 L 17.9216 37.7813 L 17.9216 33.3104 C 18.768 33.3104 19.6082 33.2552 20.4423 33.1448 C 21.2763 33.0344 21.9449 32.8565 22.4478 32.6111 C 23.0366 32.3168 23.4904 31.9243 23.8092 31.4337 C 24.1405 30.9308 24.3306 30.3113 24.3796 29.5753 L 30.3777 29.5753 L 30.3777 52.2613 L 36.0262 52.2613 L 36.0262 57.0451" style="fill: inherit; stroke: none;" transform=""/>
    <path d="M 45.8262 43.6139 L 39.3129 43.6139 L 39.3129 36.3829 L 45.8262 36.3829 L 45.8262 43.6139 M 45.8262 57.0451 L 39.3129 57.0451 L 39.3129 49.8144 L 45.8262 49.8144 L 45.8262 57.0451" style="fill: inherit; stroke: none;" transform=""/>
    <path d="M 68.5052 57.0451 L 50.4006 57.0451 L 50.4006 52.2613 L 56.1779 52.2613 L 56.1779 37.7813 L 50.4006 37.7813 L 50.4006 33.3104 C 51.247 33.3104 52.0872 33.2552 52.9213 33.1448 C 53.7554 33.0344 54.4239 32.8565 54.9268 32.6111 C 55.5155 32.3168 55.9694 31.9243 56.2882 31.4337 C 56.6195 30.9308 56.8096 30.3113 56.8587 29.5753 L 62.8567 29.5753 L 62.8567 52.2613 L 68.5052 52.2613 L 68.5052 57.0451" style="fill: inherit; stroke: none;" transform=""/>
  </symbol>
  <symbol id="zoom-to-12" viewBox="0 0 100 100">
    <path d="M 43.456 0.177261 C 19.5621 0.177261 0.126505 19.4295 0.126505 43.3771 C 0.126505 67.3246 19.5621 86.803 43.456 86.803 C 67.3514 86.803 86.5607 67.3246 86.5607 43.3771 C 86.5607 19.4295 67.3514 0.177261 43.456 0.177261 Z M 43.456 13.2955 C 60.1333 13.2955 73.472 26.6636 73.472 43.3771 C 73.472 60.0905 60.1333 73.6848 43.456 73.6848 C 26.7802 73.6848 13.216 60.0905 13.216 43.3771 C 13.216 26.6636 26.7802 13.2955 43.456 13.2955 Z" style="fill: inherit; stroke: none;" transform=""/>
    <rect transform="matrix(1 1.03607 -1.03151 1 0 0)" y="-6.68031" x="64.9276" height="10.3162" width="28.08" style="fill: inherit; stroke: none;"/>
    <path d="M 311.937 82.6925 L 306.03 82.6925 L 306.03 81.1317 L 307.915 81.1317 L 307.915 76.4074 L 306.03 76.4074 L 306.03 74.9487 C 306.306 74.9487 306.58 74.9307 306.853 74.8947 C 307.125 74.8587 307.343 74.8007 307.507 74.7206 C 307.699 74.6246 307.847 74.4965 307.951 74.3364 C 308.059 74.1723 308.121 73.9703 308.137 73.7301 L 310.094 73.7301 L 310.094 81.1317 L 311.937 81.1317 L 311.937 82.6925" style="fill: inherit; stroke: none;" transform="matrix(3.01661 0 0 3.01661 -905.329 -192.702)"/>
    <path d="M 315.134 78.3103 L 313.009 78.3103 L 313.009 75.9512 L 315.134 75.9512 L 315.134 78.3103 M 315.134 82.6925 L 313.009 82.6925 L 313.009 80.3333 L 315.134 80.3333 L 315.134 82.6925" style="fill: inherit; stroke: none;" transform="matrix(3.01661 0 0 3.01661 -905.329 -192.702)"/>
    <path d="M 322.93 82.6925 L 316.363 82.6925 L 316.363 81.2338 C 316.919 80.7935 317.417 80.3773 317.857 79.9852 C 318.302 79.593 318.692 79.2208 319.028 78.8686 C 319.464 78.4084 319.78 78.0042 319.976 77.656 C 320.173 77.3079 320.271 76.9497 320.271 76.5815 C 320.271 76.1653 320.147 75.8472 319.898 75.627 C 319.65 75.4029 319.304 75.2909 318.86 75.2909 C 318.632 75.2909 318.416 75.3189 318.212 75.3749 C 318.012 75.431 317.807 75.503 317.599 75.591 C 317.395 75.6831 317.221 75.7771 317.077 75.8732 C 316.933 75.9692 316.825 76.0413 316.753 76.0893 L 316.579 76.0893 L 316.579 74.1383 C 316.831 74.0183 317.225 73.8962 317.761 73.7721 C 318.298 73.6441 318.814 73.5801 319.31 73.5801 C 320.371 73.5801 321.173 73.8162 321.717 74.2884 C 322.266 74.7606 322.54 75.425 322.54 76.2814 C 322.54 76.8096 322.416 77.3279 322.168 77.8361 C 321.919 78.3404 321.507 78.8826 320.931 79.4629 C 320.571 79.8191 320.221 80.1372 319.88 80.4174 C 319.54 80.6935 319.294 80.8896 319.142 81.0056 L 322.93 81.0056 L 322.93 82.6925" style="fill: inherit; stroke: none;" transform="matrix(3.01661 0 0 3.01661 -905.329 -192.702)"/>
  </symbol>
  <symbol id="zoom-to-21" viewBox="0 0 100 100">
    <path d="M 43.456 0.177261 C 19.5621 0.177261 0.126505 19.4295 0.126505 43.3771 C 0.126505 67.3246 19.5621 86.803 43.456 86.803 C 67.3514 86.803 86.5607 67.3246 86.5607 43.3771 C 86.5607 19.4295 67.3514 0.177261 43.456 0.177261 Z M 43.456 13.2955 C 60.1333 13.2955 73.472 26.6636 73.472 43.3771 C 73.472 60.0905 60.1333 73.6848 43.456 73.6848 C 26.7802 73.6848 13.216 60.0905 13.216 43.3771 C 13.216 26.6636 26.7802 13.2955 43.456 13.2955 Z" style="fill: inherit; stroke: none;" transform=""/>
    <rect transform="matrix(1 1.03607 -1.03151 1 0 0)" y="-6.68031" x="64.9276" height="10.3162" width="28.08" style="fill: inherit; stroke: none;"/>
    <path d="M 311.937 82.6925 L 306.03 82.6925 L 306.03 81.1317 L 307.915 81.1317 L 307.915 76.4074 L 306.03 76.4074 L 306.03 74.9487 C 306.306 74.9487 306.58 74.9307 306.853 74.8947 C 307.125 74.8587 307.343 74.8007 307.507 74.7206 C 307.699 74.6246 307.847 74.4965 307.951 74.3364 C 308.059 74.1723 308.121 73.9703 308.137 73.7301 L 310.094 73.7301 L 310.094 81.1317 L 311.937 81.1317 L 311.937 82.6925" style="fill: inherit; stroke: none;" transform="matrix(3.01661 0 0 3.01661 -873.433 -192.802)"/>
    <path d="M 315.134 78.3103 L 313.009 78.3103 L 313.009 75.9512 L 315.134 75.9512 L 315.134 78.3103 M 315.134 82.6925 L 313.009 82.6925 L 313.009 80.3333 L 315.134 80.3333 L 315.134 82.6925" style="fill: inherit; stroke: none;" transform="matrix(3.01661 0 0 3.01661 -904.237 -192.92)"/>
    <path d="M 322.93 82.6925 L 316.363 82.6925 L 316.363 81.2338 C 316.919 80.7935 317.417 80.3773 317.857 79.9852 C 318.302 79.593 318.692 79.2208 319.028 78.8686 C 319.464 78.4084 319.78 78.0042 319.976 77.656 C 320.173 77.3079 320.271 76.9497 320.271 76.5815 C 320.271 76.1653 320.147 75.8472 319.898 75.627 C 319.65 75.4029 319.304 75.2909 318.86 75.2909 C 318.632 75.2909 318.416 75.3189 318.212 75.3749 C 318.012 75.431 317.807 75.503 317.599 75.591 C 317.395 75.6831 317.221 75.7771 317.077 75.8732 C 316.933 75.9692 316.825 76.0413 316.753 76.0893 L 316.579 76.0893 L 316.579 74.1383 C 316.831 74.0183 317.225 73.8962 317.761 73.7721 C 318.298 73.6441 318.814 73.5801 319.31 73.5801 C 320.371 73.5801 321.173 73.8162 321.717 74.2884 C 322.266 74.7606 322.54 75.425 322.54 76.2814 C 322.54 76.8096 322.416 77.3279 322.168 77.8361 C 321.919 78.3404 321.507 78.8826 320.931 79.4629 C 320.571 79.8191 320.221 80.1372 319.88 80.4174 C 319.54 80.6935 319.294 80.8896 319.142 81.0056 L 322.93 81.0056 L 322.93 82.6925" style="fill: inherit; stroke: none;" transform="matrix(3.01661 0 0 3.01661 -937.006 -192.702)"/>
  </symbol>
  <symbol id="zoom-to-view-box" viewBox="0 0 100 100">
    <rect style="stroke: inherit; stroke-width: 5px; fill: none;" width="94.915" height="94.7225" x="2.55527" y="2.72666" rx="0" ry="0" transform=""/>
    <path d="M 76.1008 37.2559 L 70.308 43.0487 L 37.0958 75.8745 L 49.4538 88.6186 L 11.2213 88.6186 L 10.8352 50 L 23.1932 62.358 L 50.9987 34.9388 L 62.1979 23.7394 L 49.8399 11.3814 L 88.0724 11.3814 L 88.0724 49.6138 Z" transform="" style="fill: inherit; stroke: none;"/>
  </symbol>
  <symbol id="zoom-to-view-box-width" viewBox="0 0 100 100">
    <rect style="stroke: inherit; stroke-width: 5px; fill: none;" width="94.915" height="94.7225" x="2.55527" y="2.72666" rx="0" ry="0" transform=""/>
    <path d="M 90.6818 51.8696 L 68.6247 31.703 L 68.6247 44.3071 L 27.6615 44.3071 L 27.6615 31.703 L 5.60434 51.8696 L 27.6615 72.6662 L 27.6615 60.0622 L 68.6247 60.0622 L 68.6247 72.6662 Z" transform="matrix(1 0 0 1 1.7477 -2.18463)" style="fill: inherit; stroke: none;"/>
  </symbol>
  <symbol id="zoom-to-view-box-height" viewBox="0 0 100 100">
    <rect style="stroke: inherit; stroke-width: 5px; fill: none;" width="94.915" height="94.7225" x="2.55527" y="2.72666" rx="0" ry="0" transform=""/>
    <path d="M 90.6818 51.8696 L 68.6247 31.703 L 68.6247 44.3071 L 27.6615 44.3071 L 27.6615 31.703 L 5.60434 51.8696 L 27.6615 72.6662 L 27.6615 60.0622 L 68.6247 60.0622 L 68.6247 72.6662 Z" transform="matrix(0 1 -1 0 102.075 1.8569)" style="fill: inherit; stroke: none;"/>
  </symbol>
  <symbol id="check-mark" viewBox="0 0 100 100">
    <path style="fill: inherit; stroke: none;" id="path7490-3-3" d="M 7.73086 61.188 L 39.9767 99.9758 L 99.9939 5.77367 L 80.2231 -0.0482012 L 38.472 65.0135 L 16.6734 38.8196 L 0.258001 51.2105" transform=""/>
  </symbol>
  <symbol id="circle" viewBox="0 0 100 100">
    <ellipse cx="50" cy="49.9269" rx="49.6429" ry="49.7161" transform="" style="fill: inherit; stroke: none;"/>
  </symbol>
  <symbol id="close" viewBox="0 0 100 100">
    <path d="M 68.4159 50.0071 L 99.5374 19.3347 C 100.649 18.2388 100.649 16.0485 99.5374 14.9526 L 86.1997 1.80746 C 85.0881 0.711947 82.8652 0.711947 81.7536 1.80746 L 50.6322 32.4802 L 18.9551 1.25954 C 17.8436 0.164357 15.6207 0.164357 14.5091 1.25954 L 1.17138 14.405 C 0.0600065 15.5002 0.0600065 17.6913 1.17138 18.7871 L 32.8486 50.0071 L 1.17138 81.2271 C 0.0600065 82.3229 0.0600065 84.514 1.17138 85.6092 L 14.5091 98.7547 C 15.6207 99.8498 17.8436 99.8498 18.9551 98.7547 L 50.0766 68.0823 L 81.1979 98.7547 C 82.3094 99.8498 84.5323 99.8498 85.6439 98.7547 L 98.9816 85.6092 C 100.093 84.514 100.093 82.3229 98.9816 81.2271 L 68.4159 50.0071 Z" style="fill: inherit; stroke: none;" transform=""/>
  </symbol>
  <symbol id="close-edited" viewBox="0 0 100 100">
    <path d="M 54.18608856201172 0.17562800645828247 L 56.269901275634766 0.3945469558238983 L 62.440834045410156 1.5721718072891235 L 66.45137023925781 2.784294366836548 L 70.34635162353516 4.327928066253662 L 75.91278076171875 7.240266799926758 L 77.68159484863281 8.363471984863281 L 79.40193939208984 9.559654235839844 L 82.68470001220703 12.162957191467285 L 87.17162322998047 16.56001853942871 L 91.07098388671875 21.485628128051758 L 92.22930145263672 23.23165512084961 L 94.32421112060547 26.860170364379883 L 96.90005493164062 32.59025955200195 L 98.74171447753906 38.596435546875 L 99.53750610351562 42.70982360839844 L 99.97789001464844 46.87628936767578 L 99.78380584716797 55.24573516845703 L 98.71076965332031 61.43560791015625 L 96.87167358398438 67.4427261352539 L 95.23812103271484 71.3009033203125 L 92.20780944824219 76.80419921875 L 91.04998016357422 78.5505599975586 L 88.52377319335938 81.89305114746094 L 84.23859405517578 86.487060546875 L 79.41241455078125 90.50880432128906 L 77.69524383544922 91.70950317382812 L 75.92858123779297 92.8360824584961 L 74.11544036865234 93.8862533569336 L 68.42963409423828 96.5575942993164 L 62.44811248779297 98.47750854492188 L 56.271297454833984 99.62373352050781 L 52.09495162963867 99.95912170410156 L 43.73014450073242 99.60652923583984 L 37.55925750732422 98.42890167236328 L 33.548728942871094 97.216796875 L 29.653730392456055 95.67316436767578 L 24.08729362487793 92.76082611083984 L 22.318462371826172 91.63761901855469 L 20.598140716552734 90.44144439697266 L 17.31537437438965 87.83814239501953 L 12.828450202941895 83.44107818603516 L 8.929065704345703 78.51546478271484 L 7.770746231079102 76.7694320678711 L 5.675751686096191 73.14102172851562 L 3.0999419689178467 67.4108657836914 L 1.2583245038986206 61.4046745300293 L 0.4624910056591034 57.29127502441406 L 0.02208840847015381 53.12483596801758 L 0.21615953743457794 44.755393981933594 L 1.2892613410949707 38.56550216674805 L 3.128368854522705 32.55836868286133 L 4.761906147003174 28.700172424316406 L 7.792220592498779 23.19688606262207 L 8.950057983398438 21.450525283813477 L 11.476197242736816 18.10796546936035 L 15.761409759521484 13.51397705078125 L 20.58761215209961 9.49223804473877 L 22.30476188659668 8.291518211364746 L 24.071439743041992 7.1649322509765625 L 25.884597778320312 6.1147918701171875 L 31.570405960083008 3.4434711933135986 L 37.551937103271484 1.523526906967163 L 39.59422302246094 1.0551091432571411 L 45.81351852416992 0.16711868345737457 M 42.62682342529297 21.28740882873535 L 40.24826431274414 21.995038986206055 L 34.64206314086914 24.628623962402344 L 30.639047622680664 27.555234909057617 L 27.181638717651367 31.11016273498535 L 24.999496459960938 34.12432861328125 L 23.20458984375 37.38397979736328 L 22.23699951171875 39.669219970703125 L 21.147659301757812 43.22731399536133 L 20.501096725463867 53.08770751953125 L 21.129390716552734 56.755226135253906 L 22.682275772094727 61.46464920043945 L 24.352645874023438 64.8080062866211 L 26.40179443359375 67.8946533203125 L 29.718204498291016 71.58134460449219 L 33.603721618652344 74.66244506835938 L 36.82575607299805 76.52386474609375 L 39.09248733520508 77.53398895263672 L 45.05847930908203 79.20091247558594 L 53.71455001831055 79.39237976074219 L 57.37317657470703 78.71360778808594 L 59.751747131347656 78.0059814453125 L 65.35794830322266 75.37238311767578 L 69.36095428466797 72.44576263427734 L 72.81836700439453 68.89083862304688 L 75.00050354003906 65.87666320800781 L 76.79541778564453 62.61701583862305 L 77.76300811767578 60.33177185058594 L 78.85233306884766 56.77367401123047 L 79.4989013671875 46.913265228271484 L 78.87060546875 43.245750427246094 L 77.3177261352539 38.536346435546875 L 75.64735412597656 35.1929931640625 L 73.59819793701172 32.10634994506836 L 70.28179931640625 28.419658660888672 L 66.3962631225586 25.338542938232422 L 63.17424392700195 23.477140426635742 L 60.907501220703125 22.467018127441406 L 54.94151306152344 20.800085067749023 L 46.28544998168945 20.608625411987305 " style="fill: inherit; stroke: none;"/>
  </symbol>
  <symbol id="minimize" viewBox="0 0 100 100">
    <rect width="99.8139" height="22.7656" x="0.0930527" y="76.9519" style="fill: inherit; stroke: none;" transform=""/>
  </symbol>
  <symbol id="maximize" viewBox="0 0 100 100">
    <rect width="85.8811" height="85.8811" x="6.94523" y="7.05943" style="fill: none; stroke: inherit; stroke-width: 14px;" transform=""/>
  </symbol>
  <symbol id="restore">
    <rect width="57.7589" height="58.4233" x="35.2677" y="7.13149" style="fill: none; stroke: inherit; stroke-width: 14px;" transform=""/>
    <path d="M 0.170326 99.8297 L 0.170326 23.6438 L 23.8497 23.6438 L 23.8497 37.6456 L 13.9661 37.6456 L 13.9661 85.622 L 57.0009 85.622 L 57.0512 77.7975 L 71.0025 77.7975 L 71.0026 99.8297" style="fill: inherit; stroke: none;"/>
  </symbol>
  <symbol id="close-thin">
    <rect transform="matrix(1 1.01587 -1.01587 1 0 0)" width="84.5364" height="12.6068" x="7.34169" y="-6.92796" style="fill: inherit; stroke: none;" rx="1.017" ry="1.017"/>
    <rect transform="matrix(-1 0.995057 -0.995057 -1 0 0)" width="85.8693" height="13.1942" x="-43.2955" y="-56.7289" style="fill: inherit; stroke: none;" rx="1.48633" ry="1.48633"/>
  </symbol>
  <symbol id="plus">
    <path d="M 61.0167 60.6598 L 97.4796 60.9085 C 98.7822 60.9172 100.074 59.6242 100.064 58.3216 L 99.9436 42.6949 C 99.9335 41.3926 98.6213 40.0815 97.3189 40.0726 L 60.8559 39.8242 L 60.57 2.71018 C 60.5598 1.40809 59.2475 0.097006 57.9454 0.0879006 L 42.3184 -0.0185653 C 41.0163 -0.0275269 39.724 1.26595 39.7338 2.56834 L 40.0202 39.682 L 2.90627 39.4288 C 1.60388 39.4202 0.31155 40.7137 0.321676 42.0157 L 0.44208 57.6426 C 0.452398 58.9447 1.76465 60.2558 3.0667 60.2649 L 39.5296 60.5136 L 39.8107 96.9761 C 39.821 98.2781 41.1332 99.5892 42.4354 99.5984 L 58.0624 99.7048 C 59.3644 99.7138 60.6567 98.4203 60.6469 97.1179 L 61.0167 60.6598 Z" style="fill: inherit; stroke: none;" transform=""/>
  </symbol>
  <symbol id="warning">
    <path d="M 56.9752 82.2709 L 56.9752 71.0222 C 56.9751 70.4144 56.7917 70.034 56.4248 69.6536 C 56.0944 69.2742 55.6908 69.0459 55.2138 69.0459 L 44.645 69.0459 C 44.1679 69.0459 43.7459 69.2742 43.3789 69.6536 C 43.0486 70.034 42.8835 70.4144 42.8836 71.0222 L 42.8836 82.2709 C 42.8835 82.8786 43.0486 83.3353 43.3789 83.7155 C 43.7459 84.0951 44.1679 84.2472 44.645 84.2472 L 55.2138 84.2472 C 55.6908 84.2472 56.0944 84.0951 56.4248 83.7155 C 56.7917 83.3353 56.9751 82.8035 56.9752 82.2709 M 56.8652 60.0767 L 57.8559 32.7906 C 57.8559 32.335 57.6724 31.9546 57.3055 31.7265 C 56.8284 31.2709 56.388 31.0426 55.9844 31.0426 L 43.8744 31.0426 C 43.4707 31.0426 43.0303 31.2709 42.5533 31.7265 C 42.1863 31.9546 42.0028 32.4111 42.0028 32.9427 L 42.9386 60.0767 C 42.9386 60.4572 43.1221 60.8376 43.4891 61.0648 C 43.8559 61.2929 44.2963 61.4453 44.8102 61.4453 L 54.9936 61.4453 C 55.5073 61.4453 55.9293 61.2929 56.2596 61.0648 C 56.6265 60.8376 56.8284 60.4572 56.8652 60.0767 M 56.0945 4.59247 L 98.3695 88.1996 C 99.6539 90.7075 99.6173 93.2164 98.2595 95.7243 C 97.6353 96.8645 96.7729 97.7765 95.6723 98.4604 C 94.6077 99.1441 93.4522 99.4486 92.2044 99.4486 L 7.6544 99.4486 C 6.40673 99.4486 5.2324 99.1441 4.13149 98.4604 C 3.06729 97.7765 2.22327 96.8645 1.59943 95.7243 C 0.241609 93.2164 0.204912 90.7075 1.48931 88.1996 L 43.7643 4.59247 C 44.388 3.37603 45.2505 2.38787 46.3514 1.70418 C 47.4523 1.02029 48.6449 0.639865 49.9294 0.639865 C 51.2137 0.639865 52.4063 1.02029 53.5073 1.70418 C 54.6082 2.38787 55.4706 3.37603 56.0945 4.59247" id="path9166" transform="matrix(1 0 0 1 0 0)" style=""/>
  </symbol>
  <symbol id="checkbox-off">
    <path transform="matrix(2.776918649673462, 0, 0, 2.776918649673462, -16.65200805664062, -16.62465657552083)" d="M 38 10 L 38 38 L 10 38 L 10 10 L 38 10 M 38 6 L 10 6 C 7.79 6 6 7.79 6 10 L 6 38 C 6 40.21 7.79 42 10 42 L 38 42 C 40.21 42 42 40.21 42 38 L 42 10 C 42 7.79 40.21 6 38 6 Z"/>
  </symbol>
  <symbol id="checkbox-on">
    <path transform="matrix(2.776918649673462, 0, 0, 2.776918649673462, -16.65200805664062, -16.62465657552083)" d="M 38 6 L 10 6 C 7.79 6 6 7.79 6 10 L 6 38 C 6 40.21 7.79 42 10 42 L 38 42 C 40.21 42 42 40.21 42 38 L 42 10 C 42 7.79 40.21 6 38 6 Z M 20 34 L 10 24 L 12.83 21.17 L 20 28.34 L 35.17 13.17 L 38 16 L 20 34 Z"/>
  </symbol>
  <symbol id="spread-method-pad">
    <rect width="91.0962" height="22.4208" x="4.99362" y="50.2263" style="opacity: 0.65;" rx="0" transform="matrix(1, 0, 0, 2.005965948464303, -0.7376865148544329, -50.6562139401322)"/>
    <rect width="91.0962" height="22.3332" x="5.08136" y="27.7945" transform="matrix(1, 0, 0, 2.005965948464303, -0.8254296779632568, -50.26192823770582)" style="opacity: 0.34;"/>
    <path d="M 804.4286499023438 19.897714614868164 L 904.4605102539062 19.897714614868164 L 904.4605102539062 119.9287109375 L 804.4286499023438 119.92914581298828 M 810.5917358398438 26.06097412109375 L 810.5917358398438 113.765869140625 L 898.2974243164062 113.765869140625 L 898.2974243164062 26.06097412109375 " transform="matrix(1 0 0 1 -804.429 -19.8977)"/>
  </symbol>
  <symbol id="spread-method-repeat">
    <rect width="91.0962" height="22.4208" x="4.99362" y="50.2263" style="opacity: 0.65;" rx="0" transform="matrix(1, 0, 0, 1, 0.5644137064615897, 21.447720845540367)"/>
    <rect width="91.0962" height="22.3332" x="5.08136" y="27.7945" transform="matrix(1, 0, 0, 1, 0.4766706029574088, 21.644276832540832)" style="opacity: 0.34;"/>
    <rect transform="matrix(0.18813790215386286, 0, 0, 0.18813790215386286, -16.600818715452785, -2.6786134178000793)" width="483" height="119" x="111" y="45" style="opacity: 0.34;"/>
    <path d="M 804.4286499023438 19.897714614868164 L 904.4605102539062 19.897714614868164 L 904.4605102539062 119.9287109375 L 804.4286499023438 119.92914581298828 M 810.5917358398438 26.06097412109375 L 810.5917358398438 113.765869140625 L 898.2974243164062 113.765869140625 L 898.2974243164062 26.06097412109375 " transform="matrix(1 0 0 1 -804.429 -19.8977)"/>
    <rect style="opacity: 0.65;" transform="matrix(0.3938197195529938, 0, 0, 0.32903915813658385, -44.710479736328125, -36.063814843539156)" width="231" height="65" x="125" y="195"/>
  </symbol>
  <symbol id="spread-method-reflect">
    <rect width="91.0962" height="22.4208" x="4.99362" y="50.2263" style="opacity: 0.65;" rx="0" transform="matrix(1, 0, 0, 1, 0.5644137064615897, 21.447720845540367)"/>
    <rect width="91.0962" height="22.3332" x="5.08136" y="27.7945" transform="matrix(1, 0, 0, 1.994047999382019, 0.4766707122325897, -28.185062408447266)" style="opacity: 0.34;"/>
    <path d="M 804.4286499023438 19.897714614868164 L 904.4605102539062 19.897714614868164 L 904.4605102539062 119.9287109375 L 804.4286499023438 119.92914581298828 M 810.5917358398438 26.06097412109375 L 810.5917358398438 113.765869140625 L 898.2974243164062 113.765869140625 L 898.2974243164062 26.06097412109375 " transform="matrix(1 0 0 1 -804.429 -19.8977)"/>
    <rect style="opacity: 0.65;" transform="matrix(0.39381971955299383, 0, 0, 0.3290391862392426, -45.27489344278972, -58.26408852471247)" width="231" height="65" x="125" y="195"/>
  </symbol>
  <symbol id="fill-rule-even-odd">
    <path style="fill-rule: evenodd;" d="M 18.6097 99.6355 C 22.093 87.1119 25.5764 74.5883 29.0598 62.0646 C 35.9437 41.4131 42.8275 20.7615 49.7114 0.109993 C 60.0786 33.1193 70.4458 66.1286 80.8131 99.1379 C 53.8583 78.6522 26.9035 58.1666 -0.0513812 37.6809 C 33.2067 37.7638 66.4648 37.8468 99.7229 37.9297 C 73.0998 58.3324 46.4768 78.7352 19.8537 99.1379"/>
  </symbol>
  <symbol id="fill-rule-non-zero">
    <path style="fill-rule: nonzero;" d="M 18.6097 99.6355 C 22.093 87.1119 25.5764 74.5883 29.0598 62.0646 C 35.9437 41.4131 42.8275 20.7615 49.7114 0.109993 C 60.0786 33.1193 70.4458 66.1286 80.8131 99.1379 C 53.8583 78.6522 26.9035 58.1666 -0.0513812 37.6809 C 33.2067 37.7638 66.4648 37.8468 99.7229 37.9297 C 73.0998 58.3324 46.4768 78.7352 19.8537 99.1379"/>
  </symbol>
  <symbol id="select-arrows">
    <path d="M -0.0000276521 99.1538 L 99.7441 99.1538 L 49.8725 0.00000822577 Z" style="fill: inherit; stroke: none;" transform="matrix(1.001509666442871, 0, 0, 0.38679265975952143, 0.022334028035402298, -0.012773842281765369)"/>
    <path d="M -0.0000276521 99.1538 L 99.7441 99.1538 L 49.8725 0.00000822577 Z" style="fill: inherit; stroke: none;" transform="matrix(1.0028769969940186, 0, 0, -0.38679270327398263, -0.06094060093164444, 99.9925844436392)"/>
  </symbol>
  <symbol id="move-left">
    <rect transform="matrix(-0.20710994303226474, 3.5278138085920915e-17, -2.7334691230710913e-17, -0.31045392155647283, 120.09541320800781, 95.19455939398871)" width="398" height="76" x="125" y="163"/>
    <rect transform="matrix(-0.08473043888807297, 1.4432577844653775e-17, -1.617251421285089e-17, -0.18367938697338104, 61.51173782348633, 186.75108805338542)" width="509" height="129" x="78" y="587"/>
    <rect transform="matrix(-0.016040392303657378, 1.964381179333234e-18, -9.56376628938705e-17, -0.7809407114982605, 8.341275169233242, 288.2076110839844)" width="387" height="128" x="133" y="241" style="fill-opacity: 0.5;"/>
  </symbol>
  <symbol id="move-right">
    <rect transform="matrix(0.2071099430322647, 3.527813808592091e-17, 2.7334691230710907e-17, -0.31045401096343994, -20.096918106079087, 95.15611267089842)" width="398" height="76" x="125" y="163"/>
    <rect transform="matrix(0.08473046869039534, 1.4432577844653772e-17, 1.6172514212850886e-17, -0.18367938697338104, 38.48675918579102, 186.712646484375)" width="509" height="129" x="78" y="587"/>
    <rect transform="matrix(0.016040392220020294, 1.9643812808605703e-18, 9.56376628938705e-17, -0.7809404730796814, 91.65721893310547, 288.1691589355469)" width="387" height="128" x="133" y="241" style="fill-opacity: 0.5;"/>
  </symbol>
  <symbol id="move-top">
    <rect transform="matrix(4.7959965003049047e-17, -0.2071099430322647, -0.31045401096343994, -4.6344517662679924e-17, 95.17301073498196, 120.1246784485711)" width="398" height="76" x="125" y="163"/>
    <rect transform="matrix(1.9620821737070098e-17, -0.08473047614097595, -0.18367938697338104, -2.7419631099091527e-17, 186.72952928966947, 61.54100687874688)" width="509" height="129" x="78" y="587"/>
    <rect transform="matrix(2.9465724382787383e-18, -0.016040392220020294, -0.7809404134750366, -1.4345649103208327e-16, 288.1860722584195, 8.370546177758111)" width="387" height="128" x="133" y="241" style="fill-opacity: 0.5;"/>
  </symbol>
  <symbol id="move-bottom">
    <rect transform="matrix(4.7959965003049047e-17, 0.20710994303226474, -0.31045401096343994, 4.634451766267994e-17, 95.17301177978516, -20.05112114800347)" width="398" height="76" x="125" y="163"/>
    <rect transform="matrix(1.9620821737070095e-17, 0.08473049104213713, -0.18367938697338104, 2.7419631099091524e-17, 186.7295227050781, 38.532550421820744)" width="509" height="129" x="78" y="587"/>
    <rect transform="matrix(2.946572851869045e-18, 0.016040392220020294, -0.7809402942657471, 1.434564910320833e-16, 288.1860656738282, 91.70301398383246)" width="387" height="128" x="133" y="241" style="fill-opacity: 0.5;"/>
  </symbol>
  <symbol id="center-horizontally">
    <rect transform="matrix(0.2071099430322647, 3.527813808592091e-17, 2.7334691230710907e-17, -0.31045401096343994, -17.28546422322591, 95.15611267089845)" width="398" height="76" x="125" y="163"/>
    <rect transform="matrix(0.08473048359155655, 1.4432577844653772e-17, 1.6172514212850892e-17, -0.18367938697338104, 21.6180372873942, 186.712646484375)" width="509" height="129" x="78" y="587"/>
    <rect transform="matrix(0.016040392220020294, 1.9643812808605703e-18, 9.563766289387051e-17, -0.7809403538703918, 44.46495920817058, 288.16915893554693)" width="387" height="128" x="133" y="241" style="fill-opacity: 0.5;"/>
  </symbol>
  <symbol id="center-vertically">
    <rect transform="matrix(4.795996452622359e-17, -0.20710994303226474, -0.31045401096343994, -4.634451677115262e-17, 94.99189843253853, 117.08599505521255)" width="398" height="76" x="125" y="163"/>
    <rect transform="matrix(1.9620824076900608e-17, -0.08473049104213713, -0.18367938697338104, -2.7419632879165845e-17, 186.5484322460151, 78.18249354459242)" width="509" height="129" x="78" y="587"/>
    <rect transform="matrix(2.946572030326368e-18, -0.016040392220020294, -0.780940294265747, -1.4345646447875746e-16, 288.00494469718694, 55.33557353116468)" width="387" height="128" x="133" y="241" style="fill-opacity: 0.5;"/>
  </symbol>
  <symbol id="stretch-horizontally">
    <rect transform="matrix(-0.19319317461314583, 3.3570413785137826e-17, -2.6795014966834035e-17, -0.31045401096343994, 112.8169121126129, 95.1945571899414)" width="398" height="76" x="125" y="163"/>
    <rect transform="matrix(-0.15136460088699044, 2.6302007521136433e-17, -1.585321585406493e-17, -0.18367938697338107, 100.6259936580033, 186.7510833740234)" width="509" height="129" x="78" y="587"/>
    <rect transform="matrix(-0.016040392303657378, 1.964381179333234e-18, -9.56376628938705e-17, -0.7809407114982605, 8.341275169233242, 288.2076110839844)" width="387" height="128" x="133" y="241" style="fill-opacity: 0.5;"/>
    <rect transform="matrix(0.0673857256770134, 0, 0, 0.22366909881218316, 86.99455261230469, -28.62812258375046)" width="92" height="447" x="101" y="128" style="fill-opacity: 0.5;"/>
  </symbol>
  <symbol id="stretch-vertically">
    <rect transform="matrix(-4.5400084404190083e-17, -0.19319318234920504, 0.31045401096343994, -4.5804840978465864e-17, 4.806801466949082, 112.81799499829714)" width="398" height="76" x="125" y="163"/>
    <rect transform="matrix(-3.5570416753623584e-17, -0.15136460959911346, 0.18367938697338107, -2.710033454527548e-17, -86.74972471713295, 100.62707702954714)" width="509" height="129" x="78" y="587"/>
    <rect transform="matrix(-2.9465720303263685e-18, -0.016040392220020294, 0.7809406518936158, -1.434564863771487e-16, -188.20625242709392, 8.342360423407037)" width="387" height="128" x="133" y="241" style="fill-opacity: 0.5;"/>
    <rect transform="matrix(4.1261856629288036e-18, 0.06738572567701338, -0.22366911172866824, 1.369578308733226e-17, 128.62948098660243, 86.99563782056275)" width="92" height="447" x="101" y="128" style="fill-opacity: 0.5;"/>
  </symbol>
  <symbol id="fill-panel" viewBox="0 0 100 100">
    <path d="M 805 548 L 795 548 L 792 538 L 789 548 L 779 548 L 787 553.5 L 784 563 L 792 558 L 800 563 L 797 553.5 Z" transform="matrix(3.8134248180005947, 0, 0, 3.988757610321045, -2969.898378359487, -2146.01416015625)"/>
  </symbol>
  <symbol id="stroke-panel" viewBox="0 0 100 100">
    <path style="fill-rule: evenodd; clip-rule: evenodd;" d="M 853 548 L 843 548 L 840 538 L 837 548 L 827 548 L 835 553.5 L 832 563 L 840 558 L 848 563 L 845 553.5 L 853 548 Z M 840 555.5 L 835.5 558.5 L 837.5 553 L 833.5 550 L 838.5 550 L 840 545 L 841.5 550 L 846.5 550 L 842.5 553 L 844.5 558.5 L 840 555.5 Z" transform="matrix(3.866093756398186, 0, 0, 4.022416114807129, -3197.5648591883946, -2164.826904296875)"/>
  </symbol>
  <symbol id="compositing-panel" viewBox="0 0 100 100">
    <path d="M 785.9 494.5 L 797.5 490.6 L 803 493.8 L 785.8 499.4 L 773 492 L 778.5 490.2 L 785.9 494.5 Z M 773.1 478.9 L 790.3 473.3 L 803.1 480.7 L 785.9 486.3 L 773.1 478.9 Z M 773.1 485.4 L 778.6 483.6 L 786 487.9 L 797.6 484 L 803.1 487.2 L 785.9 492.8 L 773.1 485.4 Z" transform="matrix(3.309497741070088, 0, 0, 3.800055906718518, -2558.0717830963695, -1797.9310401042164)"/>
  </symbol>
  <symbol id="typography-panel" viewBox="0 0 100 100">
    <path d="M 979.1 433.4 L 999.1 433.4 L 999.1 440.4 L 997.4 440.4 C 997 438.5 997.2 437.3 996.6 436.7 C 996 436.1 994.4 435.4 992.4 435.4 L 991.1 435.4 L 991.1 454.3 C 991.1 455.7 991.3 455.8 991.7 456.1 C 992.1 456.4 992.7 456.6 994.1 456.7 L 994.1 457.4 L 984.1 457.4 L 984.1 456.7 C 985.6 456.6 986.1 456.3 986.5 456 C 986.9 455.7 987.1 455.5 987.1 454 L 987.1 435.4 L 985.4 435.4 C 983.5 435.4 982.2 436.1 981.5 436.7 C 980.8 437.3 981.1 438.5 980.8 440.4 L 979.1 440.4 L 979.1 433.4 L 979.1 433.4 Z" transform="matrix(3.6652369499206543, 0, 0, 3.6652369499206543, -3575.2827769978835, -1581.5951414320205)"/>
  </symbol>
  <symbol id="view-panel" viewBox="0 0 100 100">
    <path d="M 68.1499 27.1904 L 54.5135 54.413 L 45.4224 45.3388 L 36.3315 54.413 L 27.2405 45.3388 L 18.1496 72.5616 L 81.7863 72.5616 L 68.1499 27.1904 Z M -0.0323835 -0.0323897 L -0.0323835 99.784 L 99.968 99.784 L 99.968 -0.0323897 L -0.0323835 -0.0323897 Z M 90.8773 81.6358 L 9.05859 81.6358 L 9.05859 9.04185 L 90.8773 9.04185 L 90.8773 81.6358 Z M 27.2405 36.2646 C 32.2588 36.2646 36.3315 32.1994 36.3315 27.1904 C 36.3315 22.1814 32.2588 18.1161 27.2405 18.1161 C 22.2223 18.1161 18.1496 22.1814 18.1496 27.1904 C 18.1496 32.1994 22.2223 36.2646 27.2405 36.2646 Z" transform="matrix(1.0003259788967704, 0, 0, 1.0033874826977371, -0.020487433200464977, 0.01693123750348018)"/>
  </symbol>
  <symbol id="arrangement-panel" viewBox="0 0 100 100">
    <path style="fill-rule: evenodd; clip-rule: evenodd;" d="M 255 457 L 253 457 L 253 461 L 255 461 L 255 457 Z M 265 447 L 269 447 L 269 445 L 265 445 L 265 447 Z M 265 467 L 269 467 L 269 465 L 265 465 L 265 467 Z M 255 463 L 253 463 L 253 467 L 257 467 L 257 465 L 255 465 L 255 463 Z M 259 467 L 263 467 L 263 465 L 259 465 L 259 467 Z M 271 445 L 271 447 L 273 447 L 273 449 L 275 449 L 275 445 L 271 445 Z M 273 455 L 275 455 L 275 451 L 273 451 L 273 455 Z M 273 465 L 271 465 L 271 467 L 275 467 L 275 463 L 273 463 L 273 465 Z M 273 461 L 275 461 L 275 457 L 273 457 L 273 461 Z M 253 455 L 263 455 L 263 445 L 253 445 L 253 455 Z" transform="matrix(4.558502857767797, 0, 0, 4.535675807054345, -1153.273729538385, -2018.2805526740344)"/>
  </symbol>
  <symbol id="pathfinder-panel" viewBox="0 0 100 100">
    <rect width="63.2999" height="63.4349" x="-0.0000122125" y="-0.00000592738" rx="0"/>
    <path d="M 100.34 100.14 L 33.1125 100.14 L 33.1125 32.7634 L 100.34 32.7634 M 40.9686 40.6367 L 40.9686 92.2664 L 92.4846 92.2664 L 92.4846 40.6367"/>
  </symbol>
  <symbol id="set" viewBox="0 0 100 100">
    <path d="M 609 2066 L 551 2066 C 549.343 2066 548 2064.66 548 2063 L 548 2005 C 548 2003.34 549.343 2002 551 2002 L 609 2002 C 610.657 2002 612 2003.34 612 2005 L 612 2063 C 612 2064.66 610.657 2066 609 2066 M 606 2008 L 554 2008 L 554 2060 L 606 2060 L 606 2008 Z M 567 2030 C 567.828 2030 568.578 2030.34 569.121 2030.88 L 576 2037.76 L 589.879 2023.88 C 590.422 2023.33 591.172 2023 592 2023 C 593.657 2023 595 2024.34 595 2026 C 595 2026.83 594.664 2027.58 594.121 2028.12 L 578.121 2044.12 C 577.578 2044.66 576.828 2045 576 2045 C 575.172 2045 574.422 2044.66 573.879 2044.12 L 564.879 2035.12 C 564.336 2034.58 564 2033.83 564 2033 C 564 2031.34 565.343 2030 567 2030 M 594 2045 L 594 2045 L 594 2045 L 594 2045 Z M 594 2023 L 594 2023 L 594 2023 L 594 2023 Z" transform="matrix(1.5619197890986243, 0, 0, 1.559304118156433, -855.7554692421777, -3121.63232421875)"/>
  </symbol>
  <symbol id="unset" viewBox="0 0 100 100">
    <path style="clip-path: url(#SVGID_8_); fill-rule: evenodd; clip-rule: evenodd;" d="M 719 2066 L 661 2066 C 659.343 2066 658 2064.66 658 2063 L 658 2005 C 658 2003.34 659.343 2002 661 2002 L 719 2002 C 720.657 2002 722 2003.34 722 2005 L 722 2063 C 722 2064.66 720.657 2066 719 2066 M 716 2008 L 664 2008 L 664 2060 L 716 2060 L 716 2008 Z M 676 2023 C 676 2021.34 677.343 2020 679 2020 C 679.828 2020 680.578 2020.34 681.121 2020.88 L 690 2029.76 L 698.879 2020.88 C 699.422 2020.34 700.172 2020 701 2020 C 702.657 2020 704 2021.34 704 2023 C 704 2023.83 703.664 2024.58 703.121 2025.12 L 694.243 2034 L 703.121 2042.88 C 703.664 2043.42 704 2044.17 704 2045 C 704 2046.66 702.657 2048 701 2048 C 700.172 2048 699.422 2047.66 698.879 2047.12 L 690 2038.24 L 681.121 2047.12 C 680.578 2047.66 679.828 2048 679 2048 C 677.343 2048 676 2046.66 676 2045 C 676 2044.17 676.336 2043.42 676.879 2042.88 L 685.757 2034 L 676.879 2025.12 C 676.336 2024.58 676 2023.83 676 2023" transform="matrix(1.5617108345031738, 0, 0, 1.559093952178955, -1027.5655517578125, -3121.12158203125)"/>
  </symbol>
</svg>